<?xml version="1.0" encoding="utf-8" standalone="no"?>
<!DOCTYPE svg PUBLIC "-//W3C//DTD SVG 1.1//EN"
  "http://www.w3.org/Graphics/SVG/1.1/DTD/svg11.dtd">
<svg xmlns:xlink="http://www.w3.org/1999/xlink" width="138.76375pt" height="150.420875pt" viewBox="0 0 138.76375 150.420875" xmlns="http://www.w3.org/2000/svg" version="1.1">
 <metadata>
  <rdf:RDF xmlns:dc="http://purl.org/dc/elements/1.1/" xmlns:cc="http://creativecommons.org/ns#" xmlns:rdf="http://www.w3.org/1999/02/22-rdf-syntax-ns#">
   <cc:Work>
    <dc:type rdf:resource="http://purl.org/dc/dcmitype/StillImage"/>
    <dc:date>2024-06-04T12:37:57.786373</dc:date>
    <dc:format>image/svg+xml</dc:format>
    <dc:creator>
     <cc:Agent>
      <dc:title>Matplotlib v3.7.3, https://matplotlib.org/</dc:title>
     </cc:Agent>
    </dc:creator>
   </cc:Work>
  </rdf:RDF>
 </metadata>
 <defs>
  <style type="text/css">*{stroke-linejoin: round; stroke-linecap: butt}</style>
 </defs>
 <g id="figure_1">
  <g id="patch_1">
   <path d="M 0 150.420875 
L 138.76375 150.420875 
L 138.76375 0 
L 0 0 
L 0 150.420875 
z
" style="fill: none"/>
  </g>
  <g id="axes_1">
   <g id="patch_2">
    <path d="M 33.91375 120.943125 
L 131.56375 120.943125 
L 131.56375 10.063125 
L 33.91375 10.063125 
L 33.91375 120.943125 
z
" style="fill: none"/>
   </g>
   <g id="line2d_1">
    <path d="M 33.91375 90.560422 
L 131.56375 90.560422 
" clip-path="url(#pbbe9025c28)" style="fill: none; stroke-dasharray: 2.775,1.2; stroke-dashoffset: 0; stroke: #6dc091; stroke-width: 0.75"/>
   </g>
   <g id="line2d_2">
    <path d="M 33.91375 108.039256 
L 131.56375 108.039256 
" clip-path="url(#pbbe9025c28)" style="fill: none; stroke-dasharray: 2.775,1.2; stroke-dashoffset: 0; stroke: #ff0000; stroke-width: 0.75"/>
   </g>
   <g id="line2d_3">
    <path d="M 38.79625 88.283659 
L 77.85625 88.283659 
" clip-path="url(#pbbe9025c28)" style="fill: none; stroke: #000000; stroke-width: 0.75; stroke-linecap: square"/>
   </g>
   <g id="line2d_4">
    <path d="M 87.62125 90.971032 
L 126.68125 90.971032 
" clip-path="url(#pbbe9025c28)" style="fill: none; stroke: #000000; stroke-width: 0.75; stroke-linecap: square"/>
   </g>
   <g id="matplotlib.axis_1">
    <g id="xtick_1">
     <g id="line2d_5">
      <defs>
       <path id="mc8b17c5f49" d="M 0 0 
L 0 3 
" style="stroke: #000000; stroke-width: 0.25"/>
      </defs>
      <g>
       <use xlink:href="#mc8b17c5f49" x="58.32625" y="120.943125" style="stroke: #000000; stroke-width: 0.25"/>
      </g>
     </g>
     <g id="text_1">
      <!-- Conserved -->
      <g transform="translate(38.98375 133.169375) scale(0.08 -0.08)">
       <defs>
        <path id="ArialMT-43" d="M 3763 1606 
L 4369 1453 
Q 4178 706 3683 314 
Q 3188 -78 2472 -78 
Q 1731 -78 1267 223 
Q 803 525 561 1097 
Q 319 1669 319 2325 
Q 319 3041 592 3573 
Q 866 4106 1370 4382 
Q 1875 4659 2481 4659 
Q 3169 4659 3637 4309 
Q 4106 3959 4291 3325 
L 3694 3184 
Q 3534 3684 3231 3912 
Q 2928 4141 2469 4141 
Q 1941 4141 1586 3887 
Q 1231 3634 1087 3207 
Q 944 2781 944 2328 
Q 944 1744 1114 1308 
Q 1284 872 1643 656 
Q 2003 441 2422 441 
Q 2931 441 3284 734 
Q 3638 1028 3763 1606 
z
" transform="scale(0.015625)"/>
        <path id="ArialMT-6f" d="M 213 1659 
Q 213 2581 725 3025 
Q 1153 3394 1769 3394 
Q 2453 3394 2887 2945 
Q 3322 2497 3322 1706 
Q 3322 1066 3130 698 
Q 2938 331 2570 128 
Q 2203 -75 1769 -75 
Q 1072 -75 642 372 
Q 213 819 213 1659 
z
M 791 1659 
Q 791 1022 1069 705 
Q 1347 388 1769 388 
Q 2188 388 2466 706 
Q 2744 1025 2744 1678 
Q 2744 2294 2464 2611 
Q 2184 2928 1769 2928 
Q 1347 2928 1069 2612 
Q 791 2297 791 1659 
z
" transform="scale(0.015625)"/>
        <path id="ArialMT-6e" d="M 422 0 
L 422 3319 
L 928 3319 
L 928 2847 
Q 1294 3394 1984 3394 
Q 2284 3394 2536 3286 
Q 2788 3178 2913 3003 
Q 3038 2828 3088 2588 
Q 3119 2431 3119 2041 
L 3119 0 
L 2556 0 
L 2556 2019 
Q 2556 2363 2490 2533 
Q 2425 2703 2258 2804 
Q 2091 2906 1866 2906 
Q 1506 2906 1245 2678 
Q 984 2450 984 1813 
L 984 0 
L 422 0 
z
" transform="scale(0.015625)"/>
        <path id="ArialMT-73" d="M 197 991 
L 753 1078 
Q 800 744 1014 566 
Q 1228 388 1613 388 
Q 2000 388 2187 545 
Q 2375 703 2375 916 
Q 2375 1106 2209 1216 
Q 2094 1291 1634 1406 
Q 1016 1563 777 1677 
Q 538 1791 414 1992 
Q 291 2194 291 2438 
Q 291 2659 392 2848 
Q 494 3038 669 3163 
Q 800 3259 1026 3326 
Q 1253 3394 1513 3394 
Q 1903 3394 2198 3281 
Q 2494 3169 2634 2976 
Q 2775 2784 2828 2463 
L 2278 2388 
Q 2241 2644 2061 2787 
Q 1881 2931 1553 2931 
Q 1166 2931 1000 2803 
Q 834 2675 834 2503 
Q 834 2394 903 2306 
Q 972 2216 1119 2156 
Q 1203 2125 1616 2013 
Q 2213 1853 2448 1751 
Q 2684 1650 2818 1456 
Q 2953 1263 2953 975 
Q 2953 694 2789 445 
Q 2625 197 2315 61 
Q 2006 -75 1616 -75 
Q 969 -75 630 194 
Q 291 463 197 991 
z
" transform="scale(0.015625)"/>
        <path id="ArialMT-65" d="M 2694 1069 
L 3275 997 
Q 3138 488 2766 206 
Q 2394 -75 1816 -75 
Q 1088 -75 661 373 
Q 234 822 234 1631 
Q 234 2469 665 2931 
Q 1097 3394 1784 3394 
Q 2450 3394 2872 2941 
Q 3294 2488 3294 1666 
Q 3294 1616 3291 1516 
L 816 1516 
Q 847 969 1125 678 
Q 1403 388 1819 388 
Q 2128 388 2347 550 
Q 2566 713 2694 1069 
z
M 847 1978 
L 2700 1978 
Q 2663 2397 2488 2606 
Q 2219 2931 1791 2931 
Q 1403 2931 1139 2672 
Q 875 2413 847 1978 
z
" transform="scale(0.015625)"/>
        <path id="ArialMT-72" d="M 416 0 
L 416 3319 
L 922 3319 
L 922 2816 
Q 1116 3169 1280 3281 
Q 1444 3394 1641 3394 
Q 1925 3394 2219 3213 
L 2025 2691 
Q 1819 2813 1613 2813 
Q 1428 2813 1281 2702 
Q 1134 2591 1072 2394 
Q 978 2094 978 1738 
L 978 0 
L 416 0 
z
" transform="scale(0.015625)"/>
        <path id="ArialMT-76" d="M 1344 0 
L 81 3319 
L 675 3319 
L 1388 1331 
Q 1503 1009 1600 663 
Q 1675 925 1809 1294 
L 2547 3319 
L 3125 3319 
L 1869 0 
L 1344 0 
z
" transform="scale(0.015625)"/>
        <path id="ArialMT-64" d="M 2575 0 
L 2575 419 
Q 2259 -75 1647 -75 
Q 1250 -75 917 144 
Q 584 363 401 755 
Q 219 1147 219 1656 
Q 219 2153 384 2558 
Q 550 2963 881 3178 
Q 1213 3394 1622 3394 
Q 1922 3394 2156 3267 
Q 2391 3141 2538 2938 
L 2538 4581 
L 3097 4581 
L 3097 0 
L 2575 0 
z
M 797 1656 
Q 797 1019 1065 703 
Q 1334 388 1700 388 
Q 2069 388 2326 689 
Q 2584 991 2584 1609 
Q 2584 2291 2321 2609 
Q 2059 2928 1675 2928 
Q 1300 2928 1048 2622 
Q 797 2316 797 1656 
z
" transform="scale(0.015625)"/>
       </defs>
       <use xlink:href="#ArialMT-43"/>
       <use xlink:href="#ArialMT-6f" x="72.216797"/>
       <use xlink:href="#ArialMT-6e" x="127.832031"/>
       <use xlink:href="#ArialMT-73" x="183.447266"/>
       <use xlink:href="#ArialMT-65" x="233.447266"/>
       <use xlink:href="#ArialMT-72" x="289.0625"/>
       <use xlink:href="#ArialMT-76" x="322.363281"/>
       <use xlink:href="#ArialMT-65" x="372.363281"/>
       <use xlink:href="#ArialMT-64" x="427.978516"/>
      </g>
     </g>
    </g>
    <g id="xtick_2">
     <g id="line2d_6">
      <g>
       <use xlink:href="#mc8b17c5f49" x="107.15125" y="120.943125" style="stroke: #000000; stroke-width: 0.25"/>
      </g>
     </g>
     <g id="text_2">
      <!-- Positive -->
      <g transform="translate(93.145625 133.169375) scale(0.08 -0.08)">
       <defs>
        <path id="ArialMT-50" d="M 494 0 
L 494 4581 
L 2222 4581 
Q 2678 4581 2919 4538 
Q 3256 4481 3484 4323 
Q 3713 4166 3852 3881 
Q 3991 3597 3991 3256 
Q 3991 2672 3619 2267 
Q 3247 1863 2275 1863 
L 1100 1863 
L 1100 0 
L 494 0 
z
M 1100 2403 
L 2284 2403 
Q 2872 2403 3119 2622 
Q 3366 2841 3366 3238 
Q 3366 3525 3220 3729 
Q 3075 3934 2838 4000 
Q 2684 4041 2272 4041 
L 1100 4041 
L 1100 2403 
z
" transform="scale(0.015625)"/>
        <path id="ArialMT-69" d="M 425 3934 
L 425 4581 
L 988 4581 
L 988 3934 
L 425 3934 
z
M 425 0 
L 425 3319 
L 988 3319 
L 988 0 
L 425 0 
z
" transform="scale(0.015625)"/>
        <path id="ArialMT-74" d="M 1650 503 
L 1731 6 
Q 1494 -44 1306 -44 
Q 1000 -44 831 53 
Q 663 150 594 308 
Q 525 466 525 972 
L 525 2881 
L 113 2881 
L 113 3319 
L 525 3319 
L 525 4141 
L 1084 4478 
L 1084 3319 
L 1650 3319 
L 1650 2881 
L 1084 2881 
L 1084 941 
Q 1084 700 1114 631 
Q 1144 563 1211 522 
Q 1278 481 1403 481 
Q 1497 481 1650 503 
z
" transform="scale(0.015625)"/>
       </defs>
       <use xlink:href="#ArialMT-50"/>
       <use xlink:href="#ArialMT-6f" x="66.699219"/>
       <use xlink:href="#ArialMT-73" x="122.314453"/>
       <use xlink:href="#ArialMT-69" x="172.314453"/>
       <use xlink:href="#ArialMT-74" x="194.53125"/>
       <use xlink:href="#ArialMT-69" x="222.314453"/>
       <use xlink:href="#ArialMT-76" x="244.53125"/>
       <use xlink:href="#ArialMT-65" x="294.53125"/>
      </g>
      <!-- Selection -->
      <g transform="translate(90.696875 141.630875) scale(0.08 -0.08)">
       <defs>
        <path id="ArialMT-53" d="M 288 1472 
L 859 1522 
Q 900 1178 1048 958 
Q 1197 738 1509 602 
Q 1822 466 2213 466 
Q 2559 466 2825 569 
Q 3091 672 3220 851 
Q 3350 1031 3350 1244 
Q 3350 1459 3225 1620 
Q 3100 1781 2813 1891 
Q 2628 1963 1997 2114 
Q 1366 2266 1113 2400 
Q 784 2572 623 2826 
Q 463 3081 463 3397 
Q 463 3744 659 4045 
Q 856 4347 1234 4503 
Q 1613 4659 2075 4659 
Q 2584 4659 2973 4495 
Q 3363 4331 3572 4012 
Q 3781 3694 3797 3291 
L 3216 3247 
Q 3169 3681 2898 3903 
Q 2628 4125 2100 4125 
Q 1550 4125 1298 3923 
Q 1047 3722 1047 3438 
Q 1047 3191 1225 3031 
Q 1400 2872 2139 2705 
Q 2878 2538 3153 2413 
Q 3553 2228 3743 1945 
Q 3934 1663 3934 1294 
Q 3934 928 3725 604 
Q 3516 281 3123 101 
Q 2731 -78 2241 -78 
Q 1619 -78 1198 103 
Q 778 284 539 648 
Q 300 1013 288 1472 
z
" transform="scale(0.015625)"/>
        <path id="ArialMT-6c" d="M 409 0 
L 409 4581 
L 972 4581 
L 972 0 
L 409 0 
z
" transform="scale(0.015625)"/>
        <path id="ArialMT-63" d="M 2588 1216 
L 3141 1144 
Q 3050 572 2676 248 
Q 2303 -75 1759 -75 
Q 1078 -75 664 370 
Q 250 816 250 1647 
Q 250 2184 428 2587 
Q 606 2991 970 3192 
Q 1334 3394 1763 3394 
Q 2303 3394 2647 3120 
Q 2991 2847 3088 2344 
L 2541 2259 
Q 2463 2594 2264 2762 
Q 2066 2931 1784 2931 
Q 1359 2931 1093 2626 
Q 828 2322 828 1663 
Q 828 994 1084 691 
Q 1341 388 1753 388 
Q 2084 388 2306 591 
Q 2528 794 2588 1216 
z
" transform="scale(0.015625)"/>
       </defs>
       <use xlink:href="#ArialMT-53"/>
       <use xlink:href="#ArialMT-65" x="66.699219"/>
       <use xlink:href="#ArialMT-6c" x="122.314453"/>
       <use xlink:href="#ArialMT-65" x="144.53125"/>
       <use xlink:href="#ArialMT-63" x="200.146484"/>
       <use xlink:href="#ArialMT-74" x="250.146484"/>
       <use xlink:href="#ArialMT-69" x="277.929688"/>
       <use xlink:href="#ArialMT-6f" x="300.146484"/>
       <use xlink:href="#ArialMT-6e" x="355.761719"/>
      </g>
     </g>
    </g>
   </g>
   <g id="matplotlib.axis_2">
    <g id="ytick_1">
     <g id="line2d_7">
      <defs>
       <path id="ma2fbf5251c" d="M 0 0 
L -3 0 
" style="stroke: #000000; stroke-width: 0.25"/>
      </defs>
      <g>
       <use xlink:href="#ma2fbf5251c" x="33.91375" y="120.943125" style="stroke: #000000; stroke-width: 0.25"/>
      </g>
     </g>
     <g id="text_3">
      <!-- -4 -->
      <g transform="translate(20.30125 123.80625) scale(0.08 -0.08)">
       <defs>
        <path id="ArialMT-2d" d="M 203 1375 
L 203 1941 
L 1931 1941 
L 1931 1375 
L 203 1375 
z
" transform="scale(0.015625)"/>
        <path id="ArialMT-34" d="M 2069 0 
L 2069 1097 
L 81 1097 
L 81 1613 
L 2172 4581 
L 2631 4581 
L 2631 1613 
L 3250 1613 
L 3250 1097 
L 2631 1097 
L 2631 0 
L 2069 0 
z
M 2069 1613 
L 2069 3678 
L 634 1613 
L 2069 1613 
z
" transform="scale(0.015625)"/>
       </defs>
       <use xlink:href="#ArialMT-2d"/>
       <use xlink:href="#ArialMT-34" x="33.300781"/>
      </g>
     </g>
    </g>
    <g id="ytick_2">
     <g id="line2d_8">
      <g>
       <use xlink:href="#ma2fbf5251c" x="33.91375" y="107.083125" style="stroke: #000000; stroke-width: 0.25"/>
      </g>
     </g>
     <g id="text_4">
      <!-- -2 -->
      <g transform="translate(20.30125 109.94625) scale(0.08 -0.08)">
       <defs>
        <path id="ArialMT-32" d="M 3222 541 
L 3222 0 
L 194 0 
Q 188 203 259 391 
Q 375 700 629 1000 
Q 884 1300 1366 1694 
Q 2113 2306 2375 2664 
Q 2638 3022 2638 3341 
Q 2638 3675 2398 3904 
Q 2159 4134 1775 4134 
Q 1369 4134 1125 3890 
Q 881 3647 878 3216 
L 300 3275 
Q 359 3922 746 4261 
Q 1134 4600 1788 4600 
Q 2447 4600 2831 4234 
Q 3216 3869 3216 3328 
Q 3216 3053 3103 2787 
Q 2991 2522 2730 2228 
Q 2469 1934 1863 1422 
Q 1356 997 1212 845 
Q 1069 694 975 541 
L 3222 541 
z
" transform="scale(0.015625)"/>
       </defs>
       <use xlink:href="#ArialMT-2d"/>
       <use xlink:href="#ArialMT-32" x="33.300781"/>
      </g>
     </g>
    </g>
    <g id="ytick_3">
     <g id="line2d_9">
      <g>
       <use xlink:href="#ma2fbf5251c" x="33.91375" y="93.223125" style="stroke: #000000; stroke-width: 0.25"/>
      </g>
     </g>
     <g id="text_5">
      <!-- 0 -->
      <g transform="translate(22.965 96.08625) scale(0.08 -0.08)">
       <defs>
        <path id="ArialMT-30" d="M 266 2259 
Q 266 3072 433 3567 
Q 600 4063 929 4331 
Q 1259 4600 1759 4600 
Q 2128 4600 2406 4451 
Q 2684 4303 2865 4023 
Q 3047 3744 3150 3342 
Q 3253 2941 3253 2259 
Q 3253 1453 3087 958 
Q 2922 463 2592 192 
Q 2263 -78 1759 -78 
Q 1097 -78 719 397 
Q 266 969 266 2259 
z
M 844 2259 
Q 844 1131 1108 757 
Q 1372 384 1759 384 
Q 2147 384 2411 759 
Q 2675 1134 2675 2259 
Q 2675 3391 2411 3762 
Q 2147 4134 1753 4134 
Q 1366 4134 1134 3806 
Q 844 3388 844 2259 
z
" transform="scale(0.015625)"/>
       </defs>
       <use xlink:href="#ArialMT-30"/>
      </g>
     </g>
    </g>
    <g id="ytick_4">
     <g id="line2d_10">
      <g>
       <use xlink:href="#ma2fbf5251c" x="33.91375" y="79.363125" style="stroke: #000000; stroke-width: 0.25"/>
      </g>
     </g>
     <g id="text_6">
      <!-- 2 -->
      <g transform="translate(22.965 82.22625) scale(0.08 -0.08)">
       <use xlink:href="#ArialMT-32"/>
      </g>
     </g>
    </g>
    <g id="ytick_5">
     <g id="line2d_11">
      <g>
       <use xlink:href="#ma2fbf5251c" x="33.91375" y="65.503125" style="stroke: #000000; stroke-width: 0.25"/>
      </g>
     </g>
     <g id="text_7">
      <!-- 4 -->
      <g transform="translate(22.965 68.36625) scale(0.08 -0.08)">
       <use xlink:href="#ArialMT-34"/>
      </g>
     </g>
    </g>
    <g id="ytick_6">
     <g id="line2d_12">
      <g>
       <use xlink:href="#ma2fbf5251c" x="33.91375" y="51.643125" style="stroke: #000000; stroke-width: 0.25"/>
      </g>
     </g>
     <g id="text_8">
      <!-- 6 -->
      <g transform="translate(22.965 54.50625) scale(0.08 -0.08)">
       <defs>
        <path id="ArialMT-36" d="M 3184 3459 
L 2625 3416 
Q 2550 3747 2413 3897 
Q 2184 4138 1850 4138 
Q 1581 4138 1378 3988 
Q 1113 3794 959 3422 
Q 806 3050 800 2363 
Q 1003 2672 1297 2822 
Q 1591 2972 1913 2972 
Q 2475 2972 2870 2558 
Q 3266 2144 3266 1488 
Q 3266 1056 3080 686 
Q 2894 316 2569 119 
Q 2244 -78 1831 -78 
Q 1128 -78 684 439 
Q 241 956 241 2144 
Q 241 3472 731 4075 
Q 1159 4600 1884 4600 
Q 2425 4600 2770 4297 
Q 3116 3994 3184 3459 
z
M 888 1484 
Q 888 1194 1011 928 
Q 1134 663 1356 523 
Q 1578 384 1822 384 
Q 2178 384 2434 671 
Q 2691 959 2691 1453 
Q 2691 1928 2437 2201 
Q 2184 2475 1800 2475 
Q 1419 2475 1153 2201 
Q 888 1928 888 1484 
z
" transform="scale(0.015625)"/>
       </defs>
       <use xlink:href="#ArialMT-36"/>
      </g>
     </g>
    </g>
    <g id="ytick_7">
     <g id="line2d_13">
      <g>
       <use xlink:href="#ma2fbf5251c" x="33.91375" y="37.783125" style="stroke: #000000; stroke-width: 0.25"/>
      </g>
     </g>
     <g id="text_9">
      <!-- 8 -->
      <g transform="translate(22.965 40.64625) scale(0.08 -0.08)">
       <defs>
        <path id="ArialMT-38" d="M 1131 2484 
Q 781 2613 612 2850 
Q 444 3088 444 3419 
Q 444 3919 803 4259 
Q 1163 4600 1759 4600 
Q 2359 4600 2725 4251 
Q 3091 3903 3091 3403 
Q 3091 3084 2923 2848 
Q 2756 2613 2416 2484 
Q 2838 2347 3058 2040 
Q 3278 1734 3278 1309 
Q 3278 722 2862 322 
Q 2447 -78 1769 -78 
Q 1091 -78 675 323 
Q 259 725 259 1325 
Q 259 1772 486 2073 
Q 713 2375 1131 2484 
z
M 1019 3438 
Q 1019 3113 1228 2906 
Q 1438 2700 1772 2700 
Q 2097 2700 2305 2904 
Q 2513 3109 2513 3406 
Q 2513 3716 2298 3927 
Q 2084 4138 1766 4138 
Q 1444 4138 1231 3931 
Q 1019 3725 1019 3438 
z
M 838 1322 
Q 838 1081 952 856 
Q 1066 631 1291 507 
Q 1516 384 1775 384 
Q 2178 384 2440 643 
Q 2703 903 2703 1303 
Q 2703 1709 2433 1975 
Q 2163 2241 1756 2241 
Q 1359 2241 1098 1978 
Q 838 1716 838 1322 
z
" transform="scale(0.015625)"/>
       </defs>
       <use xlink:href="#ArialMT-38"/>
      </g>
     </g>
    </g>
    <g id="ytick_8">
     <g id="line2d_14">
      <g>
       <use xlink:href="#ma2fbf5251c" x="33.91375" y="23.923125" style="stroke: #000000; stroke-width: 0.25"/>
      </g>
     </g>
     <g id="text_10">
      <!-- 10 -->
      <g transform="translate(18.51625 26.78625) scale(0.08 -0.08)">
       <defs>
        <path id="ArialMT-31" d="M 2384 0 
L 1822 0 
L 1822 3584 
Q 1619 3391 1289 3197 
Q 959 3003 697 2906 
L 697 3450 
Q 1169 3672 1522 3987 
Q 1875 4303 2022 4600 
L 2384 4600 
L 2384 0 
z
" transform="scale(0.015625)"/>
       </defs>
       <use xlink:href="#ArialMT-31"/>
       <use xlink:href="#ArialMT-30" x="55.615234"/>
      </g>
     </g>
    </g>
    <g id="ytick_9">
     <g id="line2d_15">
      <g>
       <use xlink:href="#ma2fbf5251c" x="33.91375" y="10.063125" style="stroke: #000000; stroke-width: 0.25"/>
      </g>
     </g>
     <g id="text_11">
      <!-- 12 -->
      <g transform="translate(18.51625 12.92625) scale(0.08 -0.08)">
       <use xlink:href="#ArialMT-31"/>
       <use xlink:href="#ArialMT-32" x="55.615234"/>
      </g>
     </g>
    </g>
    <g id="ytick_10">
     <g id="line2d_16">
      <defs>
       <path id="m303af5ea5f" d="M 0 0 
L -2 0 
" style="stroke: #000000; stroke-width: 0.25"/>
      </defs>
      <g>
       <use xlink:href="#m303af5ea5f" x="33.91375" y="114.013125" style="stroke: #000000; stroke-width: 0.25"/>
      </g>
     </g>
    </g>
    <g id="ytick_11">
     <g id="line2d_17">
      <g>
       <use xlink:href="#m303af5ea5f" x="33.91375" y="100.153125" style="stroke: #000000; stroke-width: 0.25"/>
      </g>
     </g>
    </g>
    <g id="ytick_12">
     <g id="line2d_18">
      <g>
       <use xlink:href="#m303af5ea5f" x="33.91375" y="86.293125" style="stroke: #000000; stroke-width: 0.25"/>
      </g>
     </g>
    </g>
    <g id="ytick_13">
     <g id="line2d_19">
      <g>
       <use xlink:href="#m303af5ea5f" x="33.91375" y="72.433125" style="stroke: #000000; stroke-width: 0.25"/>
      </g>
     </g>
    </g>
    <g id="ytick_14">
     <g id="line2d_20">
      <g>
       <use xlink:href="#m303af5ea5f" x="33.91375" y="58.573125" style="stroke: #000000; stroke-width: 0.25"/>
      </g>
     </g>
    </g>
    <g id="ytick_15">
     <g id="line2d_21">
      <g>
       <use xlink:href="#m303af5ea5f" x="33.91375" y="44.713125" style="stroke: #000000; stroke-width: 0.25"/>
      </g>
     </g>
    </g>
    <g id="ytick_16">
     <g id="line2d_22">
      <g>
       <use xlink:href="#m303af5ea5f" x="33.91375" y="30.853125" style="stroke: #000000; stroke-width: 0.25"/>
      </g>
     </g>
    </g>
    <g id="ytick_17">
     <g id="line2d_23">
      <g>
       <use xlink:href="#m303af5ea5f" x="33.91375" y="16.993125" style="stroke: #000000; stroke-width: 0.25"/>
      </g>
     </g>
    </g>
    <g id="text_12">
     <!-- PKR Functional Score versus K3-H47R -->
     <g transform="translate(12.92625 135.306875) rotate(-90) scale(0.08 -0.08)">
      <defs>
       <path id="ArialMT-4b" d="M 469 0 
L 469 4581 
L 1075 4581 
L 1075 2309 
L 3350 4581 
L 4172 4581 
L 2250 2725 
L 4256 0 
L 3456 0 
L 1825 2319 
L 1075 1588 
L 1075 0 
L 469 0 
z
" transform="scale(0.015625)"/>
       <path id="ArialMT-52" d="M 503 0 
L 503 4581 
L 2534 4581 
Q 3147 4581 3465 4457 
Q 3784 4334 3975 4021 
Q 4166 3709 4166 3331 
Q 4166 2844 3850 2509 
Q 3534 2175 2875 2084 
Q 3116 1969 3241 1856 
Q 3506 1613 3744 1247 
L 4541 0 
L 3778 0 
L 3172 953 
Q 2906 1366 2734 1584 
Q 2563 1803 2427 1890 
Q 2291 1978 2150 2013 
Q 2047 2034 1813 2034 
L 1109 2034 
L 1109 0 
L 503 0 
z
M 1109 2559 
L 2413 2559 
Q 2828 2559 3062 2645 
Q 3297 2731 3419 2920 
Q 3541 3109 3541 3331 
Q 3541 3656 3305 3865 
Q 3069 4075 2559 4075 
L 1109 4075 
L 1109 2559 
z
" transform="scale(0.015625)"/>
       <path id="ArialMT-20" transform="scale(0.015625)"/>
       <path id="ArialMT-46" d="M 525 0 
L 525 4581 
L 3616 4581 
L 3616 4041 
L 1131 4041 
L 1131 2622 
L 3281 2622 
L 3281 2081 
L 1131 2081 
L 1131 0 
L 525 0 
z
" transform="scale(0.015625)"/>
       <path id="ArialMT-75" d="M 2597 0 
L 2597 488 
Q 2209 -75 1544 -75 
Q 1250 -75 995 37 
Q 741 150 617 320 
Q 494 491 444 738 
Q 409 903 409 1263 
L 409 3319 
L 972 3319 
L 972 1478 
Q 972 1038 1006 884 
Q 1059 663 1231 536 
Q 1403 409 1656 409 
Q 1909 409 2131 539 
Q 2353 669 2445 892 
Q 2538 1116 2538 1541 
L 2538 3319 
L 3100 3319 
L 3100 0 
L 2597 0 
z
" transform="scale(0.015625)"/>
       <path id="ArialMT-61" d="M 2588 409 
Q 2275 144 1986 34 
Q 1697 -75 1366 -75 
Q 819 -75 525 192 
Q 231 459 231 875 
Q 231 1119 342 1320 
Q 453 1522 633 1644 
Q 813 1766 1038 1828 
Q 1203 1872 1538 1913 
Q 2219 1994 2541 2106 
Q 2544 2222 2544 2253 
Q 2544 2597 2384 2738 
Q 2169 2928 1744 2928 
Q 1347 2928 1158 2789 
Q 969 2650 878 2297 
L 328 2372 
Q 403 2725 575 2942 
Q 747 3159 1072 3276 
Q 1397 3394 1825 3394 
Q 2250 3394 2515 3294 
Q 2781 3194 2906 3042 
Q 3031 2891 3081 2659 
Q 3109 2516 3109 2141 
L 3109 1391 
Q 3109 606 3145 398 
Q 3181 191 3288 0 
L 2700 0 
Q 2613 175 2588 409 
z
M 2541 1666 
Q 2234 1541 1622 1453 
Q 1275 1403 1131 1340 
Q 988 1278 909 1158 
Q 831 1038 831 891 
Q 831 666 1001 516 
Q 1172 366 1500 366 
Q 1825 366 2078 508 
Q 2331 650 2450 897 
Q 2541 1088 2541 1459 
L 2541 1666 
z
" transform="scale(0.015625)"/>
       <path id="ArialMT-33" d="M 269 1209 
L 831 1284 
Q 928 806 1161 595 
Q 1394 384 1728 384 
Q 2125 384 2398 659 
Q 2672 934 2672 1341 
Q 2672 1728 2419 1979 
Q 2166 2231 1775 2231 
Q 1616 2231 1378 2169 
L 1441 2663 
Q 1497 2656 1531 2656 
Q 1891 2656 2178 2843 
Q 2466 3031 2466 3422 
Q 2466 3731 2256 3934 
Q 2047 4138 1716 4138 
Q 1388 4138 1169 3931 
Q 950 3725 888 3313 
L 325 3413 
Q 428 3978 793 4289 
Q 1159 4600 1703 4600 
Q 2078 4600 2393 4439 
Q 2709 4278 2876 4000 
Q 3044 3722 3044 3409 
Q 3044 3113 2884 2869 
Q 2725 2625 2413 2481 
Q 2819 2388 3044 2092 
Q 3269 1797 3269 1353 
Q 3269 753 2831 336 
Q 2394 -81 1725 -81 
Q 1122 -81 723 278 
Q 325 638 269 1209 
z
" transform="scale(0.015625)"/>
       <path id="ArialMT-48" d="M 513 0 
L 513 4581 
L 1119 4581 
L 1119 2700 
L 3500 2700 
L 3500 4581 
L 4106 4581 
L 4106 0 
L 3500 0 
L 3500 2159 
L 1119 2159 
L 1119 0 
L 513 0 
z
" transform="scale(0.015625)"/>
       <path id="ArialMT-37" d="M 303 3981 
L 303 4522 
L 3269 4522 
L 3269 4084 
Q 2831 3619 2401 2847 
Q 1972 2075 1738 1259 
Q 1569 684 1522 0 
L 944 0 
Q 953 541 1156 1306 
Q 1359 2072 1739 2783 
Q 2119 3494 2547 3981 
L 303 3981 
z
" transform="scale(0.015625)"/>
      </defs>
      <use xlink:href="#ArialMT-50"/>
      <use xlink:href="#ArialMT-4b" x="66.699219"/>
      <use xlink:href="#ArialMT-52" x="133.398438"/>
      <use xlink:href="#ArialMT-20" x="205.615234"/>
      <use xlink:href="#ArialMT-46" x="233.398438"/>
      <use xlink:href="#ArialMT-75" x="294.482422"/>
      <use xlink:href="#ArialMT-6e" x="350.097656"/>
      <use xlink:href="#ArialMT-63" x="405.712891"/>
      <use xlink:href="#ArialMT-74" x="455.712891"/>
      <use xlink:href="#ArialMT-69" x="483.496094"/>
      <use xlink:href="#ArialMT-6f" x="505.712891"/>
      <use xlink:href="#ArialMT-6e" x="561.328125"/>
      <use xlink:href="#ArialMT-61" x="616.943359"/>
      <use xlink:href="#ArialMT-6c" x="672.558594"/>
      <use xlink:href="#ArialMT-20" x="694.775391"/>
      <use xlink:href="#ArialMT-53" x="722.558594"/>
      <use xlink:href="#ArialMT-63" x="789.257812"/>
      <use xlink:href="#ArialMT-6f" x="839.257812"/>
      <use xlink:href="#ArialMT-72" x="894.873047"/>
      <use xlink:href="#ArialMT-65" x="928.173828"/>
      <use xlink:href="#ArialMT-20" x="983.789062"/>
      <use xlink:href="#ArialMT-76" x="1011.572266"/>
      <use xlink:href="#ArialMT-65" x="1061.572266"/>
      <use xlink:href="#ArialMT-72" x="1117.1875"/>
      <use xlink:href="#ArialMT-73" x="1150.488281"/>
      <use xlink:href="#ArialMT-75" x="1200.488281"/>
      <use xlink:href="#ArialMT-73" x="1256.103516"/>
      <use xlink:href="#ArialMT-20" x="1306.103516"/>
      <use xlink:href="#ArialMT-4b" x="1333.886719"/>
      <use xlink:href="#ArialMT-33" x="1400.585938"/>
      <use xlink:href="#ArialMT-2d" x="1456.201172"/>
      <use xlink:href="#ArialMT-48" x="1489.501953"/>
      <use xlink:href="#ArialMT-34" x="1561.71875"/>
      <use xlink:href="#ArialMT-37" x="1617.333984"/>
      <use xlink:href="#ArialMT-52" x="1672.949219"/>
     </g>
    </g>
   </g>
   <g id="PathCollection_1">
    <defs>
     <path id="m6aa3d505ff" d="M 0 1.5 
C 0.397805 1.5 0.77937 1.341951 1.06066 1.06066 
C 1.341951 0.77937 1.5 0.397805 1.5 0 
C 1.5 -0.397805 1.341951 -0.77937 1.06066 -1.06066 
C 0.77937 -1.341951 0.397805 -1.5 0 -1.5 
C -0.397805 -1.5 -0.77937 -1.341951 -1.06066 -1.06066 
C -1.341951 -0.77937 -1.5 -0.397805 -1.5 0 
C -1.5 0.397805 -1.341951 0.77937 -1.06066 1.06066 
C -0.77937 1.341951 -0.397805 1.5 0 1.5 
z
"/>
    </defs>
    <g clip-path="url(#pbbe9025c28)">
     <use xlink:href="#m6aa3d505ff" x="44.119585" y="34.077329" style="fill-opacity: 0.2"/>
     <use xlink:href="#m6aa3d505ff" x="52.108994" y="33.064849" style="fill-opacity: 0.2"/>
     <use xlink:href="#m6aa3d505ff" x="71.578328" y="36.696339" style="fill-opacity: 0.2"/>
     <use xlink:href="#m6aa3d505ff" x="66.494434" y="65.959431" style="fill-opacity: 0.2"/>
     <use xlink:href="#m6aa3d505ff" x="72.862216" y="31.408149" style="fill-opacity: 0.2"/>
     <use xlink:href="#m6aa3d505ff" x="59.986153" y="31.811614" style="fill-opacity: 0.2"/>
     <use xlink:href="#m6aa3d505ff" x="71.595382" y="72.705431" style="fill-opacity: 0.2"/>
     <use xlink:href="#m6aa3d505ff" x="56.478472" y="80.105122" style="fill-opacity: 0.2"/>
     <use xlink:href="#m6aa3d505ff" x="58.113721" y="35.920883" style="fill-opacity: 0.2"/>
     <use xlink:href="#m6aa3d505ff" x="68.888669" y="78.744053" style="fill-opacity: 0.2"/>
     <use xlink:href="#m6aa3d505ff" x="51.598066" y="57.534512" style="fill-opacity: 0.2"/>
     <use xlink:href="#m6aa3d505ff" x="55.360387" y="95.950251" style="fill-opacity: 0.2"/>
     <use xlink:href="#m6aa3d505ff" x="46.424054" y="99.424575" style="fill-opacity: 0.2"/>
     <use xlink:href="#m6aa3d505ff" x="55.410263" y="103.502474" style="fill-opacity: 0.2"/>
     <use xlink:href="#m6aa3d505ff" x="54.765372" y="98.995196" style="fill-opacity: 0.2"/>
     <use xlink:href="#m6aa3d505ff" x="53.338625" y="94.648185" style="fill-opacity: 0.2"/>
     <use xlink:href="#m6aa3d505ff" x="69.852034" y="101.770917" style="fill-opacity: 0.2"/>
     <use xlink:href="#m6aa3d505ff" x="67.326041" y="94.937489" style="fill-opacity: 0.2"/>
     <use xlink:href="#m6aa3d505ff" x="45.884812" y="92.556632" style="fill-opacity: 0.2"/>
     <use xlink:href="#m6aa3d505ff" x="60.483074" y="107.643263" style="fill-opacity: 0.2"/>
     <use xlink:href="#m6aa3d505ff" x="66.897222" y="89.373785" style="fill-opacity: 0.2"/>
     <use xlink:href="#m6aa3d505ff" x="44.507787" y="107.538325" style="fill-opacity: 0.2"/>
     <use xlink:href="#m6aa3d505ff" x="66.333118" y="108.373461" style="fill-opacity: 0.2"/>
     <use xlink:href="#m6aa3d505ff" x="48.996416" y="90.756855" style="fill-opacity: 0.2"/>
     <use xlink:href="#m6aa3d505ff" x="69.704536" y="107.586377" style="fill-opacity: 0.2"/>
     <use xlink:href="#m6aa3d505ff" x="61.034887" y="107.735337" style="fill-opacity: 0.2"/>
     <use xlink:href="#m6aa3d505ff" x="54.058762" y="107.468755" style="fill-opacity: 0.2"/>
     <use xlink:href="#m6aa3d505ff" x="61.945412" y="107.577637" style="fill-opacity: 0.2"/>
     <use xlink:href="#m6aa3d505ff" x="54.301483" y="107.195773" style="fill-opacity: 0.2"/>
     <use xlink:href="#m6aa3d505ff" x="72.469175" y="89.595748" style="fill-opacity: 0.2"/>
     <use xlink:href="#m6aa3d505ff" x="67.322868" y="107.436009" style="fill-opacity: 0.2"/>
     <use xlink:href="#m6aa3d505ff" x="64.596126" y="107.565694" style="fill-opacity: 0.2"/>
     <use xlink:href="#m6aa3d505ff" x="50.177497" y="107.73841" style="fill-opacity: 0.2"/>
     <use xlink:href="#m6aa3d505ff" x="61.600071" y="108.596983" style="fill-opacity: 0.2"/>
     <use xlink:href="#m6aa3d505ff" x="56.925384" y="107.604938" style="fill-opacity: 0.2"/>
     <use xlink:href="#m6aa3d505ff" x="51.581276" y="108.189421" style="fill-opacity: 0.2"/>
     <use xlink:href="#m6aa3d505ff" x="50.318624" y="72.925699" style="fill-opacity: 0.2"/>
     <use xlink:href="#m6aa3d505ff" x="56.052314" y="107.784842" style="fill-opacity: 0.2"/>
     <use xlink:href="#m6aa3d505ff" x="63.563097" y="106.535741" style="fill-opacity: 0.2"/>
     <use xlink:href="#m6aa3d505ff" x="54.519613" y="107.783248" style="fill-opacity: 0.2"/>
     <use xlink:href="#m6aa3d505ff" x="52.313416" y="105.68081" style="fill-opacity: 0.2"/>
     <use xlink:href="#m6aa3d505ff" x="46.191406" y="106.563584" style="fill-opacity: 0.2"/>
     <use xlink:href="#m6aa3d505ff" x="61.531885" y="107.070014" style="fill-opacity: 0.2"/>
     <use xlink:href="#m6aa3d505ff" x="68.187111" y="106.67837" style="fill-opacity: 0.2"/>
     <use xlink:href="#m6aa3d505ff" x="70.037083" y="78.927033" style="fill-opacity: 0.2"/>
     <use xlink:href="#m6aa3d505ff" x="55.576913" y="94.754066" style="fill-opacity: 0.2"/>
     <use xlink:href="#m6aa3d505ff" x="62.918814" y="102.34701" style="fill-opacity: 0.2"/>
     <use xlink:href="#m6aa3d505ff" x="69.435875" y="95.333691" style="fill-opacity: 0.2"/>
     <use xlink:href="#m6aa3d505ff" x="72.279112" y="68.528022" style="fill-opacity: 0.2"/>
     <use xlink:href="#m6aa3d505ff" x="68.25964" y="56.300565" style="fill-opacity: 0.2"/>
     <use xlink:href="#m6aa3d505ff" x="70.470015" y="75.203675" style="fill-opacity: 0.2"/>
     <use xlink:href="#m6aa3d505ff" x="48.325858" y="94.849734" style="fill-opacity: 0.2"/>
     <use xlink:href="#m6aa3d505ff" x="47.022091" y="44.715401" style="fill-opacity: 0.2"/>
     <use xlink:href="#m6aa3d505ff" x="46.182031" y="68.474994" style="fill-opacity: 0.2"/>
     <use xlink:href="#m6aa3d505ff" x="68.213504" y="56.819331" style="fill-opacity: 0.2"/>
     <use xlink:href="#m6aa3d505ff" x="55.970515" y="101.86376" style="fill-opacity: 0.2"/>
     <use xlink:href="#m6aa3d505ff" x="44.862929" y="107.44985" style="fill-opacity: 0.2"/>
     <use xlink:href="#m6aa3d505ff" x="55.837925" y="105.419129" style="fill-opacity: 0.2"/>
     <use xlink:href="#m6aa3d505ff" x="64.567555" y="105.911603" style="fill-opacity: 0.2"/>
     <use xlink:href="#m6aa3d505ff" x="70.46445" y="101.049987" style="fill-opacity: 0.2"/>
     <use xlink:href="#m6aa3d505ff" x="44.14161" y="97.196853" style="fill-opacity: 0.2"/>
     <use xlink:href="#m6aa3d505ff" x="51.389962" y="97.19683" style="fill-opacity: 0.2"/>
     <use xlink:href="#m6aa3d505ff" x="62.486718" y="100.214279" style="fill-opacity: 0.2"/>
     <use xlink:href="#m6aa3d505ff" x="46.942072" y="87.137312" style="fill-opacity: 0.2"/>
     <use xlink:href="#m6aa3d505ff" x="55.280275" y="94.032418" style="fill-opacity: 0.2"/>
     <use xlink:href="#m6aa3d505ff" x="66.522739" y="87.065304" style="fill-opacity: 0.2"/>
     <use xlink:href="#m6aa3d505ff" x="45.504866" y="104.998634" style="fill-opacity: 0.2"/>
     <use xlink:href="#m6aa3d505ff" x="60.168066" y="43.931897" style="fill-opacity: 0.2"/>
     <use xlink:href="#m6aa3d505ff" x="57.63611" y="71.848716" style="fill-opacity: 0.2"/>
     <use xlink:href="#m6aa3d505ff" x="47.679804" y="94.096244" style="fill-opacity: 0.2"/>
     <use xlink:href="#m6aa3d505ff" x="53.375563" y="93.660973" style="fill-opacity: 0.2"/>
    </g>
   </g>
   <g id="PathCollection_2">
    <g clip-path="url(#pbbe9025c28)">
     <use xlink:href="#m6aa3d505ff" x="107.546859" y="107.304989" style="fill-opacity: 0.2"/>
     <use xlink:href="#m6aa3d505ff" x="121.790556" y="96.619048" style="fill-opacity: 0.2"/>
     <use xlink:href="#m6aa3d505ff" x="115.752058" y="107.711049" style="fill-opacity: 0.2"/>
     <use xlink:href="#m6aa3d505ff" x="105.995039" y="70.007808" style="fill-opacity: 0.2"/>
     <use xlink:href="#m6aa3d505ff" x="97.228864" y="107.760869" style="fill-opacity: 0.2"/>
     <use xlink:href="#m6aa3d505ff" x="121.354289" y="88.287373" style="fill-opacity: 0.2"/>
     <use xlink:href="#m6aa3d505ff" x="96.472157" y="89.918815" style="fill-opacity: 0.2"/>
     <use xlink:href="#m6aa3d505ff" x="117.301316" y="89.132321" style="fill-opacity: 0.2"/>
     <use xlink:href="#m6aa3d505ff" x="113.382322" y="88.806397" style="fill-opacity: 0.2"/>
     <use xlink:href="#m6aa3d505ff" x="115.714892" y="90.413574" style="fill-opacity: 0.2"/>
     <use xlink:href="#m6aa3d505ff" x="106.49879" y="87.456076" style="fill-opacity: 0.2"/>
     <use xlink:href="#m6aa3d505ff" x="103.218864" y="86.212654" style="fill-opacity: 0.2"/>
     <use xlink:href="#m6aa3d505ff" x="120.118416" y="85.517317" style="fill-opacity: 0.2"/>
     <use xlink:href="#m6aa3d505ff" x="93.45816" y="78.594814" style="fill-opacity: 0.2"/>
     <use xlink:href="#m6aa3d505ff" x="106.068615" y="84.810795" style="fill-opacity: 0.2"/>
     <use xlink:href="#m6aa3d505ff" x="106.846294" y="85.937015" style="fill-opacity: 0.2"/>
     <use xlink:href="#m6aa3d505ff" x="93.333263" y="78.00446" style="fill-opacity: 0.2"/>
     <use xlink:href="#m6aa3d505ff" x="95.158607" y="82.739614" style="fill-opacity: 0.2"/>
     <use xlink:href="#m6aa3d505ff" x="113.810338" y="87.341442" style="fill-opacity: 0.2"/>
     <use xlink:href="#m6aa3d505ff" x="107.168129" y="89.895482" style="fill-opacity: 0.2"/>
     <use xlink:href="#m6aa3d505ff" x="111.707044" y="89.853063" style="fill-opacity: 0.2"/>
     <use xlink:href="#m6aa3d505ff" x="118.007375" y="88.666875" style="fill-opacity: 0.2"/>
     <use xlink:href="#m6aa3d505ff" x="104.141675" y="89.298284" style="fill-opacity: 0.2"/>
     <use xlink:href="#m6aa3d505ff" x="100.194661" y="89.624915" style="fill-opacity: 0.2"/>
     <use xlink:href="#m6aa3d505ff" x="108.876598" y="91.126737" style="fill-opacity: 0.2"/>
     <use xlink:href="#m6aa3d505ff" x="105.807086" y="94.762301" style="fill-opacity: 0.2"/>
     <use xlink:href="#m6aa3d505ff" x="101.839349" y="89.278726" style="fill-opacity: 0.2"/>
     <use xlink:href="#m6aa3d505ff" x="121.721016" y="91.450218" style="fill-opacity: 0.2"/>
     <use xlink:href="#m6aa3d505ff" x="121.122639" y="91.44016" style="fill-opacity: 0.2"/>
     <use xlink:href="#m6aa3d505ff" x="92.701024" y="100.450324" style="fill-opacity: 0.2"/>
     <use xlink:href="#m6aa3d505ff" x="95.677062" y="90.011962" style="fill-opacity: 0.2"/>
     <use xlink:href="#m6aa3d505ff" x="115.300728" y="90.731591" style="fill-opacity: 0.2"/>
     <use xlink:href="#m6aa3d505ff" x="103.496431" y="91.845289" style="fill-opacity: 0.2"/>
     <use xlink:href="#m6aa3d505ff" x="102.915868" y="88.630746" style="fill-opacity: 0.2"/>
     <use xlink:href="#m6aa3d505ff" x="93.888434" y="92.226198" style="fill-opacity: 0.2"/>
     <use xlink:href="#m6aa3d505ff" x="101.375886" y="90.510842" style="fill-opacity: 0.2"/>
     <use xlink:href="#m6aa3d505ff" x="102.675897" y="90.262491" style="fill-opacity: 0.2"/>
     <use xlink:href="#m6aa3d505ff" x="106.859964" y="97.100352" style="fill-opacity: 0.2"/>
     <use xlink:href="#m6aa3d505ff" x="118.267131" y="95.267416" style="fill-opacity: 0.2"/>
     <use xlink:href="#m6aa3d505ff" x="105.729452" y="87.842577" style="fill-opacity: 0.2"/>
     <use xlink:href="#m6aa3d505ff" x="99.055413" y="94.730017" style="fill-opacity: 0.2"/>
     <use xlink:href="#m6aa3d505ff" x="93.385114" y="67.1682" style="fill-opacity: 0.2"/>
     <use xlink:href="#m6aa3d505ff" x="93.834662" y="91.318383" style="fill-opacity: 0.2"/>
     <use xlink:href="#m6aa3d505ff" x="98.46985" y="86.611384" style="fill-opacity: 0.2"/>
     <use xlink:href="#m6aa3d505ff" x="103.13203" y="84.615922" style="fill-opacity: 0.2"/>
     <use xlink:href="#m6aa3d505ff" x="117.159547" y="108.361023" style="fill-opacity: 0.2"/>
     <use xlink:href="#m6aa3d505ff" x="117.791283" y="92.298687" style="fill-opacity: 0.2"/>
     <use xlink:href="#m6aa3d505ff" x="104.859943" y="106.884107" style="fill-opacity: 0.2"/>
     <use xlink:href="#m6aa3d505ff" x="118.874738" y="107.303211" style="fill-opacity: 0.2"/>
     <use xlink:href="#m6aa3d505ff" x="102.607472" y="105.620259" style="fill-opacity: 0.2"/>
     <use xlink:href="#m6aa3d505ff" x="113.709984" y="106.805059" style="fill-opacity: 0.2"/>
     <use xlink:href="#m6aa3d505ff" x="107.151834" y="92.726809" style="fill-opacity: 0.2"/>
     <use xlink:href="#m6aa3d505ff" x="117.791045" y="92.496201" style="fill-opacity: 0.2"/>
     <use xlink:href="#m6aa3d505ff" x="106.119723" y="95.208345" style="fill-opacity: 0.2"/>
     <use xlink:href="#m6aa3d505ff" x="107.123804" y="92.791128" style="fill-opacity: 0.2"/>
     <use xlink:href="#m6aa3d505ff" x="99.566677" y="91.593945" style="fill-opacity: 0.2"/>
     <use xlink:href="#m6aa3d505ff" x="110.067086" y="91.500307" style="fill-opacity: 0.2"/>
     <use xlink:href="#m6aa3d505ff" x="99.491228" y="92.337198" style="fill-opacity: 0.2"/>
     <use xlink:href="#m6aa3d505ff" x="94.958777" y="92.981254" style="fill-opacity: 0.2"/>
     <use xlink:href="#m6aa3d505ff" x="99.951105" y="99.652615" style="fill-opacity: 0.2"/>
     <use xlink:href="#m6aa3d505ff" x="93.211364" y="30.098017" style="fill-opacity: 0.2"/>
     <use xlink:href="#m6aa3d505ff" x="105.472351" y="95.128224" style="fill-opacity: 0.2"/>
     <use xlink:href="#m6aa3d505ff" x="111.800684" y="87.691866" style="fill-opacity: 0.2"/>
     <use xlink:href="#m6aa3d505ff" x="114.538075" y="94.574693" style="fill-opacity: 0.2"/>
     <use xlink:href="#m6aa3d505ff" x="119.848706" y="94.134707" style="fill-opacity: 0.2"/>
     <use xlink:href="#m6aa3d505ff" x="94.29984" y="95.718223" style="fill-opacity: 0.2"/>
     <use xlink:href="#m6aa3d505ff" x="119.340944" y="90.28437" style="fill-opacity: 0.2"/>
     <use xlink:href="#m6aa3d505ff" x="108.74343" y="92.543066" style="fill-opacity: 0.2"/>
    </g>
   </g>
   <g id="patch_3">
    <path d="M 33.91375 120.943125 
L 33.91375 10.063125 
" style="fill: none; stroke: #000000; stroke-width: 0.25; stroke-linejoin: miter; stroke-linecap: square"/>
   </g>
   <g id="patch_4">
    <path d="M 33.91375 120.943125 
L 131.56375 120.943125 
" style="fill: none; stroke: #000000; stroke-width: 0.25; stroke-linejoin: miter; stroke-linecap: square"/>
   </g>
  </g>
 </g>
 <defs>
  <clipPath id="pbbe9025c28">
   <rect x="33.91375" y="10.063125" width="97.65" height="110.88"/>
  </clipPath>
 </defs>
</svg>
