<?xml version="1.0" encoding="utf-8" standalone="no"?>
<!DOCTYPE svg PUBLIC "-//W3C//DTD SVG 1.1//EN"
  "http://www.w3.org/Graphics/SVG/1.1/DTD/svg11.dtd">
<svg xmlns:xlink="http://www.w3.org/1999/xlink" width="500.617006pt" height="141.34501pt" viewBox="0 0 500.617006 141.34501" xmlns="http://www.w3.org/2000/svg" version="1.1">
 <metadata>
  <rdf:RDF xmlns:dc="http://purl.org/dc/elements/1.1/" xmlns:cc="http://creativecommons.org/ns#" xmlns:rdf="http://www.w3.org/1999/02/22-rdf-syntax-ns#">
   <cc:Work>
    <dc:type rdf:resource="http://purl.org/dc/dcmitype/StillImage"/>
    <dc:date>2024-06-04T15:58:51.105960</dc:date>
    <dc:format>image/svg+xml</dc:format>
    <dc:creator>
     <cc:Agent>
      <dc:title>Matplotlib v3.7.3, https://matplotlib.org/</dc:title>
     </cc:Agent>
    </dc:creator>
   </cc:Work>
  </rdf:RDF>
 </metadata>
 <defs>
  <style type="text/css">*{stroke-linejoin: round; stroke-linecap: butt}</style>
 </defs>
 <g id="figure_1">
  <g id="patch_1">
   <path d="M 0 141.34501 
L 500.617006 141.34501 
L 500.617006 0 
L 0 0 
L 0 141.34501 
z
" style="fill: none"/>
  </g>
  <g id="axes_1">
   <g id="patch_2">
    <path d="M 33.91375 108.51251 
L 407.049735 108.51251 
L 407.049735 9.988289 
L 33.91375 9.988289 
L 33.91375 108.51251 
z
" style="fill: none"/>
   </g>
   <g id="line2d_1">
    <path d="M 33.91375 104.378574 
L 407.049735 104.378574 
" clip-path="url(#pe58eae6d7d)" style="fill: none; stroke-dasharray: 2.775,1.2; stroke-dashoffset: 0; stroke: #ff0000; stroke-width: 0.75"/>
   </g>
   <g id="line2d_2">
    <path d="M 33.91375 84.780382 
L 407.049735 84.780382 
" clip-path="url(#pe58eae6d7d)" style="fill: none; stroke-dasharray: 2.775,1.2; stroke-dashoffset: 0; stroke: #6dc091; stroke-width: 0.75"/>
   </g>
   <g id="matplotlib.axis_1">
    <g id="xtick_1">
     <g id="line2d_3">
      <defs>
       <path id="mc13186d89c" d="M 0 0 
L 0 3 
" style="stroke: #000000; stroke-width: 0.25"/>
      </defs>
      <g>
       <use xlink:href="#mc13186d89c" x="54.643527" y="108.51251" style="stroke: #000000; stroke-width: 0.25"/>
      </g>
     </g>
     <g id="text_1">
      <!-- 375 -->
      <g transform="translate(47.970402 120.73876) scale(0.08 -0.08)">
       <defs>
        <path id="ArialMT-33" d="M 269 1209 
L 831 1284 
Q 928 806 1161 595 
Q 1394 384 1728 384 
Q 2125 384 2398 659 
Q 2672 934 2672 1341 
Q 2672 1728 2419 1979 
Q 2166 2231 1775 2231 
Q 1616 2231 1378 2169 
L 1441 2663 
Q 1497 2656 1531 2656 
Q 1891 2656 2178 2843 
Q 2466 3031 2466 3422 
Q 2466 3731 2256 3934 
Q 2047 4138 1716 4138 
Q 1388 4138 1169 3931 
Q 950 3725 888 3313 
L 325 3413 
Q 428 3978 793 4289 
Q 1159 4600 1703 4600 
Q 2078 4600 2393 4439 
Q 2709 4278 2876 4000 
Q 3044 3722 3044 3409 
Q 3044 3113 2884 2869 
Q 2725 2625 2413 2481 
Q 2819 2388 3044 2092 
Q 3269 1797 3269 1353 
Q 3269 753 2831 336 
Q 2394 -81 1725 -81 
Q 1122 -81 723 278 
Q 325 638 269 1209 
z
" transform="scale(0.015625)"/>
        <path id="ArialMT-37" d="M 303 3981 
L 303 4522 
L 3269 4522 
L 3269 4084 
Q 2831 3619 2401 2847 
Q 1972 2075 1738 1259 
Q 1569 684 1522 0 
L 944 0 
Q 953 541 1156 1306 
Q 1359 2072 1739 2783 
Q 2119 3494 2547 3981 
L 303 3981 
z
" transform="scale(0.015625)"/>
        <path id="ArialMT-35" d="M 266 1200 
L 856 1250 
Q 922 819 1161 601 
Q 1400 384 1738 384 
Q 2144 384 2425 690 
Q 2706 997 2706 1503 
Q 2706 1984 2436 2262 
Q 2166 2541 1728 2541 
Q 1456 2541 1237 2417 
Q 1019 2294 894 2097 
L 366 2166 
L 809 4519 
L 3088 4519 
L 3088 3981 
L 1259 3981 
L 1013 2750 
Q 1425 3038 1878 3038 
Q 2478 3038 2890 2622 
Q 3303 2206 3303 1553 
Q 3303 931 2941 478 
Q 2500 -78 1738 -78 
Q 1113 -78 717 272 
Q 322 622 266 1200 
z
" transform="scale(0.015625)"/>
       </defs>
       <use xlink:href="#ArialMT-33"/>
       <use xlink:href="#ArialMT-37" x="55.615234"/>
       <use xlink:href="#ArialMT-35" x="111.230469"/>
      </g>
     </g>
    </g>
    <g id="xtick_2">
     <g id="line2d_4">
      <g>
       <use xlink:href="#mc13186d89c" x="96.103081" y="108.51251" style="stroke: #000000; stroke-width: 0.25"/>
      </g>
     </g>
     <g id="text_2">
      <!-- 378 -->
      <g transform="translate(89.429956 120.73876) scale(0.08 -0.08)">
       <defs>
        <path id="ArialMT-38" d="M 1131 2484 
Q 781 2613 612 2850 
Q 444 3088 444 3419 
Q 444 3919 803 4259 
Q 1163 4600 1759 4600 
Q 2359 4600 2725 4251 
Q 3091 3903 3091 3403 
Q 3091 3084 2923 2848 
Q 2756 2613 2416 2484 
Q 2838 2347 3058 2040 
Q 3278 1734 3278 1309 
Q 3278 722 2862 322 
Q 2447 -78 1769 -78 
Q 1091 -78 675 323 
Q 259 725 259 1325 
Q 259 1772 486 2073 
Q 713 2375 1131 2484 
z
M 1019 3438 
Q 1019 3113 1228 2906 
Q 1438 2700 1772 2700 
Q 2097 2700 2305 2904 
Q 2513 3109 2513 3406 
Q 2513 3716 2298 3927 
Q 2084 4138 1766 4138 
Q 1444 4138 1231 3931 
Q 1019 3725 1019 3438 
z
M 838 1322 
Q 838 1081 952 856 
Q 1066 631 1291 507 
Q 1516 384 1775 384 
Q 2178 384 2440 643 
Q 2703 903 2703 1303 
Q 2703 1709 2433 1975 
Q 2163 2241 1756 2241 
Q 1359 2241 1098 1978 
Q 838 1716 838 1322 
z
" transform="scale(0.015625)"/>
       </defs>
       <use xlink:href="#ArialMT-33"/>
       <use xlink:href="#ArialMT-37" x="55.615234"/>
       <use xlink:href="#ArialMT-38" x="111.230469"/>
      </g>
     </g>
    </g>
    <g id="xtick_3">
     <g id="line2d_5">
      <g>
       <use xlink:href="#mc13186d89c" x="137.562635" y="108.51251" style="stroke: #000000; stroke-width: 0.25"/>
      </g>
     </g>
     <g id="text_3">
      <!-- 382 -->
      <g transform="translate(130.88951 120.73876) scale(0.08 -0.08)">
       <defs>
        <path id="ArialMT-32" d="M 3222 541 
L 3222 0 
L 194 0 
Q 188 203 259 391 
Q 375 700 629 1000 
Q 884 1300 1366 1694 
Q 2113 2306 2375 2664 
Q 2638 3022 2638 3341 
Q 2638 3675 2398 3904 
Q 2159 4134 1775 4134 
Q 1369 4134 1125 3890 
Q 881 3647 878 3216 
L 300 3275 
Q 359 3922 746 4261 
Q 1134 4600 1788 4600 
Q 2447 4600 2831 4234 
Q 3216 3869 3216 3328 
Q 3216 3053 3103 2787 
Q 2991 2522 2730 2228 
Q 2469 1934 1863 1422 
Q 1356 997 1212 845 
Q 1069 694 975 541 
L 3222 541 
z
" transform="scale(0.015625)"/>
       </defs>
       <use xlink:href="#ArialMT-33"/>
       <use xlink:href="#ArialMT-38" x="55.615234"/>
       <use xlink:href="#ArialMT-32" x="111.230469"/>
      </g>
     </g>
    </g>
    <g id="xtick_4">
     <g id="line2d_6">
      <g>
       <use xlink:href="#mc13186d89c" x="179.022189" y="108.51251" style="stroke: #000000; stroke-width: 0.25"/>
      </g>
     </g>
     <g id="text_4">
      <!-- 448 -->
      <g transform="translate(172.349064 120.73876) scale(0.08 -0.08)">
       <defs>
        <path id="ArialMT-34" d="M 2069 0 
L 2069 1097 
L 81 1097 
L 81 1613 
L 2172 4581 
L 2631 4581 
L 2631 1613 
L 3250 1613 
L 3250 1097 
L 2631 1097 
L 2631 0 
L 2069 0 
z
M 2069 1613 
L 2069 3678 
L 634 1613 
L 2069 1613 
z
" transform="scale(0.015625)"/>
       </defs>
       <use xlink:href="#ArialMT-34"/>
       <use xlink:href="#ArialMT-34" x="55.615234"/>
       <use xlink:href="#ArialMT-38" x="111.230469"/>
      </g>
     </g>
    </g>
    <g id="xtick_5">
     <g id="line2d_7">
      <g>
       <use xlink:href="#mc13186d89c" x="220.481742" y="108.51251" style="stroke: #000000; stroke-width: 0.25"/>
      </g>
     </g>
     <g id="text_5">
      <!-- 455 -->
      <g transform="translate(213.808617 120.73876) scale(0.08 -0.08)">
       <use xlink:href="#ArialMT-34"/>
       <use xlink:href="#ArialMT-35" x="55.615234"/>
       <use xlink:href="#ArialMT-35" x="111.230469"/>
      </g>
     </g>
    </g>
    <g id="xtick_6">
     <g id="line2d_8">
      <g>
       <use xlink:href="#mc13186d89c" x="261.941296" y="108.51251" style="stroke: #000000; stroke-width: 0.25"/>
      </g>
     </g>
     <g id="text_6">
      <!-- 480 -->
      <g transform="translate(255.268171 120.73876) scale(0.08 -0.08)">
       <defs>
        <path id="ArialMT-30" d="M 266 2259 
Q 266 3072 433 3567 
Q 600 4063 929 4331 
Q 1259 4600 1759 4600 
Q 2128 4600 2406 4451 
Q 2684 4303 2865 4023 
Q 3047 3744 3150 3342 
Q 3253 2941 3253 2259 
Q 3253 1453 3087 958 
Q 2922 463 2592 192 
Q 2263 -78 1759 -78 
Q 1097 -78 719 397 
Q 266 969 266 2259 
z
M 844 2259 
Q 844 1131 1108 757 
Q 1372 384 1759 384 
Q 2147 384 2411 759 
Q 2675 1134 2675 2259 
Q 2675 3391 2411 3762 
Q 2147 4134 1753 4134 
Q 1366 4134 1134 3806 
Q 844 3388 844 2259 
z
" transform="scale(0.015625)"/>
       </defs>
       <use xlink:href="#ArialMT-34"/>
       <use xlink:href="#ArialMT-38" x="55.615234"/>
       <use xlink:href="#ArialMT-30" x="111.230469"/>
      </g>
     </g>
    </g>
    <g id="xtick_7">
     <g id="line2d_9">
      <g>
       <use xlink:href="#mc13186d89c" x="303.40085" y="108.51251" style="stroke: #000000; stroke-width: 0.25"/>
      </g>
     </g>
     <g id="text_7">
      <!-- 486 -->
      <g transform="translate(296.727725 120.73876) scale(0.08 -0.08)">
       <defs>
        <path id="ArialMT-36" d="M 3184 3459 
L 2625 3416 
Q 2550 3747 2413 3897 
Q 2184 4138 1850 4138 
Q 1581 4138 1378 3988 
Q 1113 3794 959 3422 
Q 806 3050 800 2363 
Q 1003 2672 1297 2822 
Q 1591 2972 1913 2972 
Q 2475 2972 2870 2558 
Q 3266 2144 3266 1488 
Q 3266 1056 3080 686 
Q 2894 316 2569 119 
Q 2244 -78 1831 -78 
Q 1128 -78 684 439 
Q 241 956 241 2144 
Q 241 3472 731 4075 
Q 1159 4600 1884 4600 
Q 2425 4600 2770 4297 
Q 3116 3994 3184 3459 
z
M 888 1484 
Q 888 1194 1011 928 
Q 1134 663 1356 523 
Q 1578 384 1822 384 
Q 2178 384 2434 671 
Q 2691 959 2691 1453 
Q 2691 1928 2437 2201 
Q 2184 2475 1800 2475 
Q 1419 2475 1153 2201 
Q 888 1928 888 1484 
z
" transform="scale(0.015625)"/>
       </defs>
       <use xlink:href="#ArialMT-34"/>
       <use xlink:href="#ArialMT-38" x="55.615234"/>
       <use xlink:href="#ArialMT-36" x="111.230469"/>
      </g>
     </g>
    </g>
    <g id="xtick_8">
     <g id="line2d_10">
      <g>
       <use xlink:href="#mc13186d89c" x="344.860404" y="108.51251" style="stroke: #000000; stroke-width: 0.25"/>
      </g>
     </g>
     <g id="text_8">
      <!-- 491 -->
      <g transform="translate(338.187279 120.73876) scale(0.08 -0.08)">
       <defs>
        <path id="ArialMT-39" d="M 350 1059 
L 891 1109 
Q 959 728 1153 556 
Q 1347 384 1650 384 
Q 1909 384 2104 503 
Q 2300 622 2425 820 
Q 2550 1019 2634 1356 
Q 2719 1694 2719 2044 
Q 2719 2081 2716 2156 
Q 2547 1888 2255 1720 
Q 1963 1553 1622 1553 
Q 1053 1553 659 1965 
Q 266 2378 266 3053 
Q 266 3750 677 4175 
Q 1088 4600 1706 4600 
Q 2153 4600 2523 4359 
Q 2894 4119 3086 3673 
Q 3278 3228 3278 2384 
Q 3278 1506 3087 986 
Q 2897 466 2520 194 
Q 2144 -78 1638 -78 
Q 1100 -78 759 220 
Q 419 519 350 1059 
z
M 2653 3081 
Q 2653 3566 2395 3850 
Q 2138 4134 1775 4134 
Q 1400 4134 1122 3828 
Q 844 3522 844 3034 
Q 844 2597 1108 2323 
Q 1372 2050 1759 2050 
Q 2150 2050 2401 2323 
Q 2653 2597 2653 3081 
z
" transform="scale(0.015625)"/>
        <path id="ArialMT-31" d="M 2384 0 
L 1822 0 
L 1822 3584 
Q 1619 3391 1289 3197 
Q 959 3003 697 2906 
L 697 3450 
Q 1169 3672 1522 3987 
Q 1875 4303 2022 4600 
L 2384 4600 
L 2384 0 
z
" transform="scale(0.015625)"/>
       </defs>
       <use xlink:href="#ArialMT-34"/>
       <use xlink:href="#ArialMT-39" x="55.615234"/>
       <use xlink:href="#ArialMT-31" x="111.230469"/>
      </g>
     </g>
    </g>
    <g id="xtick_9">
     <g id="line2d_11">
      <g>
       <use xlink:href="#mc13186d89c" x="386.319958" y="108.51251" style="stroke: #000000; stroke-width: 0.25"/>
      </g>
     </g>
     <g id="text_9">
      <!-- 504 -->
      <g transform="translate(379.646833 120.73876) scale(0.08 -0.08)">
       <use xlink:href="#ArialMT-35"/>
       <use xlink:href="#ArialMT-30" x="55.615234"/>
       <use xlink:href="#ArialMT-34" x="111.230469"/>
      </g>
     </g>
    </g>
    <g id="text_10">
     <!-- PKR Site -->
     <g transform="translate(204.252992 132.05501) scale(0.08 -0.08)">
      <defs>
       <path id="ArialMT-50" d="M 494 0 
L 494 4581 
L 2222 4581 
Q 2678 4581 2919 4538 
Q 3256 4481 3484 4323 
Q 3713 4166 3852 3881 
Q 3991 3597 3991 3256 
Q 3991 2672 3619 2267 
Q 3247 1863 2275 1863 
L 1100 1863 
L 1100 0 
L 494 0 
z
M 1100 2403 
L 2284 2403 
Q 2872 2403 3119 2622 
Q 3366 2841 3366 3238 
Q 3366 3525 3220 3729 
Q 3075 3934 2838 4000 
Q 2684 4041 2272 4041 
L 1100 4041 
L 1100 2403 
z
" transform="scale(0.015625)"/>
       <path id="ArialMT-4b" d="M 469 0 
L 469 4581 
L 1075 4581 
L 1075 2309 
L 3350 4581 
L 4172 4581 
L 2250 2725 
L 4256 0 
L 3456 0 
L 1825 2319 
L 1075 1588 
L 1075 0 
L 469 0 
z
" transform="scale(0.015625)"/>
       <path id="ArialMT-52" d="M 503 0 
L 503 4581 
L 2534 4581 
Q 3147 4581 3465 4457 
Q 3784 4334 3975 4021 
Q 4166 3709 4166 3331 
Q 4166 2844 3850 2509 
Q 3534 2175 2875 2084 
Q 3116 1969 3241 1856 
Q 3506 1613 3744 1247 
L 4541 0 
L 3778 0 
L 3172 953 
Q 2906 1366 2734 1584 
Q 2563 1803 2427 1890 
Q 2291 1978 2150 2013 
Q 2047 2034 1813 2034 
L 1109 2034 
L 1109 0 
L 503 0 
z
M 1109 2559 
L 2413 2559 
Q 2828 2559 3062 2645 
Q 3297 2731 3419 2920 
Q 3541 3109 3541 3331 
Q 3541 3656 3305 3865 
Q 3069 4075 2559 4075 
L 1109 4075 
L 1109 2559 
z
" transform="scale(0.015625)"/>
       <path id="ArialMT-20" transform="scale(0.015625)"/>
       <path id="ArialMT-53" d="M 288 1472 
L 859 1522 
Q 900 1178 1048 958 
Q 1197 738 1509 602 
Q 1822 466 2213 466 
Q 2559 466 2825 569 
Q 3091 672 3220 851 
Q 3350 1031 3350 1244 
Q 3350 1459 3225 1620 
Q 3100 1781 2813 1891 
Q 2628 1963 1997 2114 
Q 1366 2266 1113 2400 
Q 784 2572 623 2826 
Q 463 3081 463 3397 
Q 463 3744 659 4045 
Q 856 4347 1234 4503 
Q 1613 4659 2075 4659 
Q 2584 4659 2973 4495 
Q 3363 4331 3572 4012 
Q 3781 3694 3797 3291 
L 3216 3247 
Q 3169 3681 2898 3903 
Q 2628 4125 2100 4125 
Q 1550 4125 1298 3923 
Q 1047 3722 1047 3438 
Q 1047 3191 1225 3031 
Q 1400 2872 2139 2705 
Q 2878 2538 3153 2413 
Q 3553 2228 3743 1945 
Q 3934 1663 3934 1294 
Q 3934 928 3725 604 
Q 3516 281 3123 101 
Q 2731 -78 2241 -78 
Q 1619 -78 1198 103 
Q 778 284 539 648 
Q 300 1013 288 1472 
z
" transform="scale(0.015625)"/>
       <path id="ArialMT-69" d="M 425 3934 
L 425 4581 
L 988 4581 
L 988 3934 
L 425 3934 
z
M 425 0 
L 425 3319 
L 988 3319 
L 988 0 
L 425 0 
z
" transform="scale(0.015625)"/>
       <path id="ArialMT-74" d="M 1650 503 
L 1731 6 
Q 1494 -44 1306 -44 
Q 1000 -44 831 53 
Q 663 150 594 308 
Q 525 466 525 972 
L 525 2881 
L 113 2881 
L 113 3319 
L 525 3319 
L 525 4141 
L 1084 4478 
L 1084 3319 
L 1650 3319 
L 1650 2881 
L 1084 2881 
L 1084 941 
Q 1084 700 1114 631 
Q 1144 563 1211 522 
Q 1278 481 1403 481 
Q 1497 481 1650 503 
z
" transform="scale(0.015625)"/>
       <path id="ArialMT-65" d="M 2694 1069 
L 3275 997 
Q 3138 488 2766 206 
Q 2394 -75 1816 -75 
Q 1088 -75 661 373 
Q 234 822 234 1631 
Q 234 2469 665 2931 
Q 1097 3394 1784 3394 
Q 2450 3394 2872 2941 
Q 3294 2488 3294 1666 
Q 3294 1616 3291 1516 
L 816 1516 
Q 847 969 1125 678 
Q 1403 388 1819 388 
Q 2128 388 2347 550 
Q 2566 713 2694 1069 
z
M 847 1978 
L 2700 1978 
Q 2663 2397 2488 2606 
Q 2219 2931 1791 2931 
Q 1403 2931 1139 2672 
Q 875 2413 847 1978 
z
" transform="scale(0.015625)"/>
      </defs>
      <use xlink:href="#ArialMT-50"/>
      <use xlink:href="#ArialMT-4b" x="66.699219"/>
      <use xlink:href="#ArialMT-52" x="133.398438"/>
      <use xlink:href="#ArialMT-20" x="205.615234"/>
      <use xlink:href="#ArialMT-53" x="233.398438"/>
      <use xlink:href="#ArialMT-69" x="300.097656"/>
      <use xlink:href="#ArialMT-74" x="322.314453"/>
      <use xlink:href="#ArialMT-65" x="350.097656"/>
     </g>
    </g>
   </g>
   <g id="matplotlib.axis_2">
    <g id="ytick_1">
     <g id="line2d_12">
      <defs>
       <path id="madfb03c42d" d="M 0 0 
L -3 0 
" style="stroke: #000000; stroke-width: 0.25"/>
      </defs>
      <g>
       <use xlink:href="#madfb03c42d" x="33.91375" y="103.306509" style="stroke: #000000; stroke-width: 0.25"/>
      </g>
     </g>
     <g id="text_11">
      <!-- -2 -->
      <g transform="translate(20.30125 106.169634) scale(0.08 -0.08)">
       <defs>
        <path id="ArialMT-2d" d="M 203 1375 
L 203 1941 
L 1931 1941 
L 1931 1375 
L 203 1375 
z
" transform="scale(0.015625)"/>
       </defs>
       <use xlink:href="#ArialMT-2d"/>
       <use xlink:href="#ArialMT-32" x="33.300781"/>
      </g>
     </g>
    </g>
    <g id="ytick_2">
     <g id="line2d_13">
      <g>
       <use xlink:href="#madfb03c42d" x="33.91375" y="87.765945" style="stroke: #000000; stroke-width: 0.25"/>
      </g>
     </g>
     <g id="text_12">
      <!-- 0 -->
      <g transform="translate(22.965 90.62907) scale(0.08 -0.08)">
       <use xlink:href="#ArialMT-30"/>
      </g>
     </g>
    </g>
    <g id="ytick_3">
     <g id="line2d_14">
      <g>
       <use xlink:href="#madfb03c42d" x="33.91375" y="72.225381" style="stroke: #000000; stroke-width: 0.25"/>
      </g>
     </g>
     <g id="text_13">
      <!-- 2 -->
      <g transform="translate(22.965 75.088506) scale(0.08 -0.08)">
       <use xlink:href="#ArialMT-32"/>
      </g>
     </g>
    </g>
    <g id="ytick_4">
     <g id="line2d_15">
      <g>
       <use xlink:href="#madfb03c42d" x="33.91375" y="56.684817" style="stroke: #000000; stroke-width: 0.25"/>
      </g>
     </g>
     <g id="text_14">
      <!-- 4 -->
      <g transform="translate(22.965 59.547942) scale(0.08 -0.08)">
       <use xlink:href="#ArialMT-34"/>
      </g>
     </g>
    </g>
    <g id="ytick_5">
     <g id="line2d_16">
      <g>
       <use xlink:href="#madfb03c42d" x="33.91375" y="41.144253" style="stroke: #000000; stroke-width: 0.25"/>
      </g>
     </g>
     <g id="text_15">
      <!-- 6 -->
      <g transform="translate(22.965 44.007378) scale(0.08 -0.08)">
       <use xlink:href="#ArialMT-36"/>
      </g>
     </g>
    </g>
    <g id="ytick_6">
     <g id="line2d_17">
      <g>
       <use xlink:href="#madfb03c42d" x="33.91375" y="25.603689" style="stroke: #000000; stroke-width: 0.25"/>
      </g>
     </g>
     <g id="text_16">
      <!-- 8 -->
      <g transform="translate(22.965 28.466814) scale(0.08 -0.08)">
       <use xlink:href="#ArialMT-38"/>
      </g>
     </g>
    </g>
    <g id="ytick_7">
     <g id="line2d_18">
      <g>
       <use xlink:href="#madfb03c42d" x="33.91375" y="10.063125" style="stroke: #000000; stroke-width: 0.25"/>
      </g>
     </g>
     <g id="text_17">
      <!-- 10 -->
      <g transform="translate(18.51625 12.92625) scale(0.08 -0.08)">
       <use xlink:href="#ArialMT-31"/>
       <use xlink:href="#ArialMT-30" x="55.615234"/>
      </g>
     </g>
    </g>
    <g id="ytick_8">
     <g id="line2d_19">
      <defs>
       <path id="m2caa0056fe" d="M 0 0 
L -2 0 
" style="stroke: #000000; stroke-width: 0.25"/>
      </defs>
      <g>
       <use xlink:href="#m2caa0056fe" x="33.91375" y="95.536227" style="stroke: #000000; stroke-width: 0.25"/>
      </g>
     </g>
    </g>
    <g id="ytick_9">
     <g id="line2d_20">
      <g>
       <use xlink:href="#m2caa0056fe" x="33.91375" y="79.995663" style="stroke: #000000; stroke-width: 0.25"/>
      </g>
     </g>
    </g>
    <g id="ytick_10">
     <g id="line2d_21">
      <g>
       <use xlink:href="#m2caa0056fe" x="33.91375" y="64.455099" style="stroke: #000000; stroke-width: 0.25"/>
      </g>
     </g>
    </g>
    <g id="ytick_11">
     <g id="line2d_22">
      <g>
       <use xlink:href="#m2caa0056fe" x="33.91375" y="48.914535" style="stroke: #000000; stroke-width: 0.25"/>
      </g>
     </g>
    </g>
    <g id="ytick_12">
     <g id="line2d_23">
      <g>
       <use xlink:href="#m2caa0056fe" x="33.91375" y="33.373971" style="stroke: #000000; stroke-width: 0.25"/>
      </g>
     </g>
    </g>
    <g id="ytick_13">
     <g id="line2d_24">
      <g>
       <use xlink:href="#m2caa0056fe" x="33.91375" y="17.833407" style="stroke: #000000; stroke-width: 0.25"/>
      </g>
     </g>
    </g>
    <g id="text_18">
     <!-- PKR Functional Score versus K3-H47R -->
     <g transform="translate(12.92625 129.054149) rotate(-90) scale(0.08 -0.08)">
      <defs>
       <path id="ArialMT-46" d="M 525 0 
L 525 4581 
L 3616 4581 
L 3616 4041 
L 1131 4041 
L 1131 2622 
L 3281 2622 
L 3281 2081 
L 1131 2081 
L 1131 0 
L 525 0 
z
" transform="scale(0.015625)"/>
       <path id="ArialMT-75" d="M 2597 0 
L 2597 488 
Q 2209 -75 1544 -75 
Q 1250 -75 995 37 
Q 741 150 617 320 
Q 494 491 444 738 
Q 409 903 409 1263 
L 409 3319 
L 972 3319 
L 972 1478 
Q 972 1038 1006 884 
Q 1059 663 1231 536 
Q 1403 409 1656 409 
Q 1909 409 2131 539 
Q 2353 669 2445 892 
Q 2538 1116 2538 1541 
L 2538 3319 
L 3100 3319 
L 3100 0 
L 2597 0 
z
" transform="scale(0.015625)"/>
       <path id="ArialMT-6e" d="M 422 0 
L 422 3319 
L 928 3319 
L 928 2847 
Q 1294 3394 1984 3394 
Q 2284 3394 2536 3286 
Q 2788 3178 2913 3003 
Q 3038 2828 3088 2588 
Q 3119 2431 3119 2041 
L 3119 0 
L 2556 0 
L 2556 2019 
Q 2556 2363 2490 2533 
Q 2425 2703 2258 2804 
Q 2091 2906 1866 2906 
Q 1506 2906 1245 2678 
Q 984 2450 984 1813 
L 984 0 
L 422 0 
z
" transform="scale(0.015625)"/>
       <path id="ArialMT-63" d="M 2588 1216 
L 3141 1144 
Q 3050 572 2676 248 
Q 2303 -75 1759 -75 
Q 1078 -75 664 370 
Q 250 816 250 1647 
Q 250 2184 428 2587 
Q 606 2991 970 3192 
Q 1334 3394 1763 3394 
Q 2303 3394 2647 3120 
Q 2991 2847 3088 2344 
L 2541 2259 
Q 2463 2594 2264 2762 
Q 2066 2931 1784 2931 
Q 1359 2931 1093 2626 
Q 828 2322 828 1663 
Q 828 994 1084 691 
Q 1341 388 1753 388 
Q 2084 388 2306 591 
Q 2528 794 2588 1216 
z
" transform="scale(0.015625)"/>
       <path id="ArialMT-6f" d="M 213 1659 
Q 213 2581 725 3025 
Q 1153 3394 1769 3394 
Q 2453 3394 2887 2945 
Q 3322 2497 3322 1706 
Q 3322 1066 3130 698 
Q 2938 331 2570 128 
Q 2203 -75 1769 -75 
Q 1072 -75 642 372 
Q 213 819 213 1659 
z
M 791 1659 
Q 791 1022 1069 705 
Q 1347 388 1769 388 
Q 2188 388 2466 706 
Q 2744 1025 2744 1678 
Q 2744 2294 2464 2611 
Q 2184 2928 1769 2928 
Q 1347 2928 1069 2612 
Q 791 2297 791 1659 
z
" transform="scale(0.015625)"/>
       <path id="ArialMT-61" d="M 2588 409 
Q 2275 144 1986 34 
Q 1697 -75 1366 -75 
Q 819 -75 525 192 
Q 231 459 231 875 
Q 231 1119 342 1320 
Q 453 1522 633 1644 
Q 813 1766 1038 1828 
Q 1203 1872 1538 1913 
Q 2219 1994 2541 2106 
Q 2544 2222 2544 2253 
Q 2544 2597 2384 2738 
Q 2169 2928 1744 2928 
Q 1347 2928 1158 2789 
Q 969 2650 878 2297 
L 328 2372 
Q 403 2725 575 2942 
Q 747 3159 1072 3276 
Q 1397 3394 1825 3394 
Q 2250 3394 2515 3294 
Q 2781 3194 2906 3042 
Q 3031 2891 3081 2659 
Q 3109 2516 3109 2141 
L 3109 1391 
Q 3109 606 3145 398 
Q 3181 191 3288 0 
L 2700 0 
Q 2613 175 2588 409 
z
M 2541 1666 
Q 2234 1541 1622 1453 
Q 1275 1403 1131 1340 
Q 988 1278 909 1158 
Q 831 1038 831 891 
Q 831 666 1001 516 
Q 1172 366 1500 366 
Q 1825 366 2078 508 
Q 2331 650 2450 897 
Q 2541 1088 2541 1459 
L 2541 1666 
z
" transform="scale(0.015625)"/>
       <path id="ArialMT-6c" d="M 409 0 
L 409 4581 
L 972 4581 
L 972 0 
L 409 0 
z
" transform="scale(0.015625)"/>
       <path id="ArialMT-72" d="M 416 0 
L 416 3319 
L 922 3319 
L 922 2816 
Q 1116 3169 1280 3281 
Q 1444 3394 1641 3394 
Q 1925 3394 2219 3213 
L 2025 2691 
Q 1819 2813 1613 2813 
Q 1428 2813 1281 2702 
Q 1134 2591 1072 2394 
Q 978 2094 978 1738 
L 978 0 
L 416 0 
z
" transform="scale(0.015625)"/>
       <path id="ArialMT-76" d="M 1344 0 
L 81 3319 
L 675 3319 
L 1388 1331 
Q 1503 1009 1600 663 
Q 1675 925 1809 1294 
L 2547 3319 
L 3125 3319 
L 1869 0 
L 1344 0 
z
" transform="scale(0.015625)"/>
       <path id="ArialMT-73" d="M 197 991 
L 753 1078 
Q 800 744 1014 566 
Q 1228 388 1613 388 
Q 2000 388 2187 545 
Q 2375 703 2375 916 
Q 2375 1106 2209 1216 
Q 2094 1291 1634 1406 
Q 1016 1563 777 1677 
Q 538 1791 414 1992 
Q 291 2194 291 2438 
Q 291 2659 392 2848 
Q 494 3038 669 3163 
Q 800 3259 1026 3326 
Q 1253 3394 1513 3394 
Q 1903 3394 2198 3281 
Q 2494 3169 2634 2976 
Q 2775 2784 2828 2463 
L 2278 2388 
Q 2241 2644 2061 2787 
Q 1881 2931 1553 2931 
Q 1166 2931 1000 2803 
Q 834 2675 834 2503 
Q 834 2394 903 2306 
Q 972 2216 1119 2156 
Q 1203 2125 1616 2013 
Q 2213 1853 2448 1751 
Q 2684 1650 2818 1456 
Q 2953 1263 2953 975 
Q 2953 694 2789 445 
Q 2625 197 2315 61 
Q 2006 -75 1616 -75 
Q 969 -75 630 194 
Q 291 463 197 991 
z
" transform="scale(0.015625)"/>
       <path id="ArialMT-48" d="M 513 0 
L 513 4581 
L 1119 4581 
L 1119 2700 
L 3500 2700 
L 3500 4581 
L 4106 4581 
L 4106 0 
L 3500 0 
L 3500 2159 
L 1119 2159 
L 1119 0 
L 513 0 
z
" transform="scale(0.015625)"/>
      </defs>
      <use xlink:href="#ArialMT-50"/>
      <use xlink:href="#ArialMT-4b" x="66.699219"/>
      <use xlink:href="#ArialMT-52" x="133.398438"/>
      <use xlink:href="#ArialMT-20" x="205.615234"/>
      <use xlink:href="#ArialMT-46" x="233.398438"/>
      <use xlink:href="#ArialMT-75" x="294.482422"/>
      <use xlink:href="#ArialMT-6e" x="350.097656"/>
      <use xlink:href="#ArialMT-63" x="405.712891"/>
      <use xlink:href="#ArialMT-74" x="455.712891"/>
      <use xlink:href="#ArialMT-69" x="483.496094"/>
      <use xlink:href="#ArialMT-6f" x="505.712891"/>
      <use xlink:href="#ArialMT-6e" x="561.328125"/>
      <use xlink:href="#ArialMT-61" x="616.943359"/>
      <use xlink:href="#ArialMT-6c" x="672.558594"/>
      <use xlink:href="#ArialMT-20" x="694.775391"/>
      <use xlink:href="#ArialMT-53" x="722.558594"/>
      <use xlink:href="#ArialMT-63" x="789.257812"/>
      <use xlink:href="#ArialMT-6f" x="839.257812"/>
      <use xlink:href="#ArialMT-72" x="894.873047"/>
      <use xlink:href="#ArialMT-65" x="928.173828"/>
      <use xlink:href="#ArialMT-20" x="983.789062"/>
      <use xlink:href="#ArialMT-76" x="1011.572266"/>
      <use xlink:href="#ArialMT-65" x="1061.572266"/>
      <use xlink:href="#ArialMT-72" x="1117.1875"/>
      <use xlink:href="#ArialMT-73" x="1150.488281"/>
      <use xlink:href="#ArialMT-75" x="1200.488281"/>
      <use xlink:href="#ArialMT-73" x="1256.103516"/>
      <use xlink:href="#ArialMT-20" x="1306.103516"/>
      <use xlink:href="#ArialMT-4b" x="1333.886719"/>
      <use xlink:href="#ArialMT-33" x="1400.585938"/>
      <use xlink:href="#ArialMT-2d" x="1456.201172"/>
      <use xlink:href="#ArialMT-48" x="1489.501953"/>
      <use xlink:href="#ArialMT-34" x="1561.71875"/>
      <use xlink:href="#ArialMT-37" x="1617.333984"/>
      <use xlink:href="#ArialMT-52" x="1672.949219"/>
     </g>
    </g>
   </g>
   <g id="patch_3">
    <path d="M 33.91375 108.51251 
L 33.91375 9.988289 
" style="fill: none; stroke: #000000; stroke-width: 0.25; stroke-linejoin: miter; stroke-linecap: square"/>
   </g>
   <g id="patch_4">
    <path d="M 33.91375 108.51251 
L 407.049735 108.51251 
" style="fill: none; stroke: #000000; stroke-width: 0.25; stroke-linejoin: miter; stroke-linecap: square"/>
   </g>
   <g id="PathCollection_1">
    <defs>
     <path id="mbc63cdbd18"/>
    </defs>
    <g clip-path="url(#pe58eae6d7d)">
     <use xlink:href="#mbc63cdbd18" x="35.248629" y="16.975792" style="fill: #ff0000"/>
     <use xlink:href="#mbc63cdbd18" x="37.735671" y="81.602762" style="fill: #ff0000"/>
     <use xlink:href="#mbc63cdbd18" x="49.117262" y="17.70379" style="fill: #ff0000"/>
     <use xlink:href="#mbc63cdbd18" x="41.855247" y="19.976764" style="fill: #ff0000"/>
     <use xlink:href="#mbc63cdbd18" x="56.456366" y="34.062635" style="fill: #ff0000"/>
     <use xlink:href="#mbc63cdbd18" x="69.301581" y="19.779729" style="fill: #ff0000"/>
    </g>
   </g>
   <g id="PathCollection_2">
    <g clip-path="url(#pe58eae6d7d)">
     <use xlink:href="#mbc63cdbd18" x="92.137664" y="83.688917" style="fill: #ff0000"/>
     <use xlink:href="#mbc63cdbd18" x="100.349787" y="75.615854" style="fill: #ff0000"/>
     <use xlink:href="#mbc63cdbd18" x="85.614613" y="63.528918" style="fill: #ff0000"/>
     <use xlink:href="#mbc63cdbd18" x="88.89451" y="34.417806" style="fill: #ff0000"/>
     <use xlink:href="#mbc63cdbd18" x="80.476608" y="45.118427" style="fill: #ff0000"/>
     <use xlink:href="#mbc63cdbd18" x="80.761351" y="51.323533" style="fill: #ff0000"/>
     <use xlink:href="#mbc63cdbd18" x="81.779339" y="82.24299" style="fill: #ff0000"/>
    </g>
   </g>
   <g id="PathCollection_3">
    <g clip-path="url(#pe58eae6d7d)">
     <use xlink:href="#mbc63cdbd18" x="136.463922" y="64.473128" style="fill: #ff0000"/>
     <use xlink:href="#mbc63cdbd18" x="129.175117" y="48.277486" style="fill: #ff0000"/>
     <use xlink:href="#mbc63cdbd18" x="144.877018" y="39.029487" style="fill: #ff0000"/>
     <use xlink:href="#mbc63cdbd18" x="138.63139" y="59.744655" style="fill: #ff0000"/>
     <use xlink:href="#mbc63cdbd18" x="154.957129" y="52.239652" style="fill: #ff0000"/>
    </g>
   </g>
   <g id="PathCollection_4">
    <g clip-path="url(#pe58eae6d7d)">
     <use xlink:href="#mbc63cdbd18" x="197.375463" y="94.550733" style="fill: #ff0000"/>
     <use xlink:href="#mbc63cdbd18" x="169.719382" y="83.104373" style="fill: #ff0000"/>
     <use xlink:href="#mbc63cdbd18" x="169.216699" y="99.834289" style="fill: #ff0000"/>
     <use xlink:href="#mbc63cdbd18" x="169.249224" y="89.969212" style="fill: #ff0000"/>
     <use xlink:href="#mbc63cdbd18" x="164.326441" y="79.944558" style="fill: #ff0000"/>
     <use xlink:href="#mbc63cdbd18" x="161.68066" y="85.414055" style="fill: #ff0000"/>
    </g>
   </g>
   <g id="PathCollection_5">
    <g clip-path="url(#pe58eae6d7d)">
     <use xlink:href="#mbc63cdbd18" x="200.47307" y="46.366421" style="fill: #ff0000"/>
     <use xlink:href="#mbc63cdbd18" x="203.155727" y="67.561586" style="fill: #ff0000"/>
     <use xlink:href="#mbc63cdbd18" x="202.424105" y="89.589785" style="fill: #ff0000"/>
     <use xlink:href="#mbc63cdbd18" x="214.310322" y="33.376523" style="fill: #ff0000"/>
     <use xlink:href="#mbc63cdbd18" x="209.559882" y="60.017033" style="fill: #ff0000"/>
     <use xlink:href="#mbc63cdbd18" x="216.760934" y="46.948089" style="fill: #ff0000"/>
    </g>
   </g>
   <g id="PathCollection_6">
    <g clip-path="url(#pe58eae6d7d)">
     <use xlink:href="#mbc63cdbd18" x="255.521414" y="104.034136" style="fill: #ff0000"/>
     <use xlink:href="#mbc63cdbd18" x="241.932083" y="21.448555" style="fill: #ff0000"/>
     <use xlink:href="#mbc63cdbd18" x="263.491303" y="20.313308" style="fill: #ff0000"/>
     <use xlink:href="#mbc63cdbd18" x="244.662834" y="24.385127" style="fill: #ff0000"/>
     <use xlink:href="#mbc63cdbd18" x="255.704398" y="57.196451" style="fill: #ff0000"/>
     <use xlink:href="#mbc63cdbd18" x="282.031581" y="18.455729" style="fill: #ff0000"/>
     <use xlink:href="#mbc63cdbd18" x="267.670017" y="18.908115" style="fill: #ff0000"/>
    </g>
   </g>
   <g id="PathCollection_7">
    <g clip-path="url(#pe58eae6d7d)">
     <use xlink:href="#mbc63cdbd18" x="286.057121" y="67.051905" style="fill: #ff0000"/>
     <use xlink:href="#mbc63cdbd18" x="305.059678" y="69.410248" style="fill: #ff0000"/>
     <use xlink:href="#mbc63cdbd18" x="309.933768" y="79.456153" style="fill: #ff0000"/>
     <use xlink:href="#mbc63cdbd18" x="308.999981" y="69.275312" style="fill: #ff0000"/>
     <use xlink:href="#mbc63cdbd18" x="319.662731" y="95.263745" style="fill: #ff0000"/>
     <use xlink:href="#mbc63cdbd18" x="308.229056" y="46.820847" style="fill: #ff0000"/>
     <use xlink:href="#mbc63cdbd18" x="306.384715" y="92.880438" style="fill: #ff0000"/>
    </g>
   </g>
   <g id="PathCollection_8">
    <g clip-path="url(#pe58eae6d7d)">
     <use xlink:href="#mbc63cdbd18" x="362.079585" y="40.316434" style="fill: #ff0000"/>
     <use xlink:href="#mbc63cdbd18" x="339.571917" y="21.921896" style="fill: #ff0000"/>
     <use xlink:href="#mbc63cdbd18" x="336.730715" y="20.517464" style="fill: #ff0000"/>
     <use xlink:href="#mbc63cdbd18" x="352.400872" y="101.965113" style="fill: #ff0000"/>
     <use xlink:href="#mbc63cdbd18" x="341.003126" y="14.466662" style="fill: #ff0000"/>
     <use xlink:href="#mbc63cdbd18" x="345.863305" y="50.821885" style="fill: #ff0000"/>
    </g>
   </g>
   <g id="PathCollection_9">
    <g clip-path="url(#pe58eae6d7d)">
     <use xlink:href="#mbc63cdbd18" x="404.529376" y="81.777981" style="fill: #ff0000"/>
     <use xlink:href="#mbc63cdbd18" x="378.815258" y="89.476597" style="fill: #ff0000"/>
     <use xlink:href="#mbc63cdbd18" x="389.823187" y="80.490679" style="fill: #ff0000"/>
     <use xlink:href="#mbc63cdbd18" x="373.760022" y="84.180228" style="fill: #ff0000"/>
    </g>
   </g>
   <g id="text_19">
    <!-- A -->
    <g transform="translate(300.732725 69.12003) scale(0.08 -0.08)">
     <defs>
      <path id="ArialMT-41" d="M -9 0 
L 1750 4581 
L 2403 4581 
L 4278 0 
L 3588 0 
L 3053 1388 
L 1138 1388 
L 634 0 
L -9 0 
z
M 1313 1881 
L 2866 1881 
L 2388 3150 
Q 2169 3728 2063 4100 
Q 1975 3659 1816 3225 
L 1313 1881 
z
" transform="scale(0.015625)"/>
     </defs>
     <use xlink:href="#ArialMT-41"/>
    </g>
   </g>
   <g id="text_20">
    <!-- E -->
    <g transform="translate(300.732725 71.478373) scale(0.08 -0.08)">
     <defs>
      <path id="ArialMT-45" d="M 506 0 
L 506 4581 
L 3819 4581 
L 3819 4041 
L 1113 4041 
L 1113 2638 
L 3647 2638 
L 3647 2100 
L 1113 2100 
L 1113 541 
L 3925 541 
L 3925 0 
L 506 0 
z
" transform="scale(0.015625)"/>
     </defs>
     <use xlink:href="#ArialMT-45"/>
    </g>
   </g>
   <g id="text_21">
    <!-- G -->
    <g transform="translate(300.2896 81.524278) scale(0.08 -0.08)">
     <defs>
      <path id="ArialMT-47" d="M 2638 1797 
L 2638 2334 
L 4578 2338 
L 4578 638 
Q 4131 281 3656 101 
Q 3181 -78 2681 -78 
Q 2006 -78 1454 211 
Q 903 500 622 1047 
Q 341 1594 341 2269 
Q 341 2938 620 3517 
Q 900 4097 1425 4378 
Q 1950 4659 2634 4659 
Q 3131 4659 3532 4498 
Q 3934 4338 4162 4050 
Q 4391 3763 4509 3300 
L 3963 3150 
Q 3859 3500 3706 3700 
Q 3553 3900 3268 4020 
Q 2984 4141 2638 4141 
Q 2222 4141 1919 4014 
Q 1616 3888 1430 3681 
Q 1244 3475 1141 3228 
Q 966 2803 966 2306 
Q 966 1694 1177 1281 
Q 1388 869 1791 669 
Q 2194 469 2647 469 
Q 3041 469 3416 620 
Q 3791 772 3984 944 
L 3984 1797 
L 2638 1797 
z
" transform="scale(0.015625)"/>
     </defs>
     <use xlink:href="#ArialMT-47"/>
    </g>
   </g>
   <g id="text_22">
    <!-- H -->
    <g transform="translate(300.5121 71.343437) scale(0.08 -0.08)">
     <use xlink:href="#ArialMT-48"/>
    </g>
   </g>
   <g id="text_23">
    <!-- N -->
    <g transform="translate(300.5121 97.33187) scale(0.08 -0.08)">
     <defs>
      <path id="ArialMT-4e" d="M 488 0 
L 488 4581 
L 1109 4581 
L 3516 984 
L 3516 4581 
L 4097 4581 
L 4097 0 
L 3475 0 
L 1069 3600 
L 1069 0 
L 488 0 
z
" transform="scale(0.015625)"/>
     </defs>
     <use xlink:href="#ArialMT-4e"/>
    </g>
   </g>
   <g id="text_24">
    <!-- V -->
    <g style="fill: #0000ff" transform="translate(300.732725 48.888972) scale(0.08 -0.08)">
     <defs>
      <path id="ArialMT-56" d="M 1803 0 
L 28 4581 
L 684 4581 
L 1875 1253 
Q 2019 853 2116 503 
Q 2222 878 2363 1253 
L 3600 4581 
L 4219 4581 
L 2425 0 
L 1803 0 
z
" transform="scale(0.015625)"/>
     </defs>
     <use xlink:href="#ArialMT-56"/>
    </g>
   </g>
   <g id="text_25">
    <!-- Y -->
    <g transform="translate(300.732725 94.948563) scale(0.08 -0.08)">
     <defs>
      <path id="ArialMT-59" d="M 1784 0 
L 1784 1941 
L 19 4581 
L 756 4581 
L 1659 3200 
Q 1909 2813 2125 2425 
Q 2331 2784 2625 3234 
L 3513 4581 
L 4219 4581 
L 2391 1941 
L 2391 0 
L 1784 0 
z
" transform="scale(0.015625)"/>
     </defs>
     <use xlink:href="#ArialMT-59"/>
    </g>
   </g>
   <g id="text_26">
    <!-- A -->
    <g transform="translate(51.975402 19.043917) scale(0.08 -0.08)">
     <use xlink:href="#ArialMT-41"/>
    </g>
   </g>
   <g id="text_27">
    <!-- D -->
    <g transform="translate(51.754777 83.670887) scale(0.08 -0.08)">
     <defs>
      <path id="ArialMT-44" d="M 494 0 
L 494 4581 
L 2072 4581 
Q 2606 4581 2888 4516 
Q 3281 4425 3559 4188 
Q 3922 3881 4101 3404 
Q 4281 2928 4281 2316 
Q 4281 1794 4159 1391 
Q 4038 988 3847 723 
Q 3656 459 3429 307 
Q 3203 156 2883 78 
Q 2563 0 2147 0 
L 494 0 
z
M 1100 541 
L 2078 541 
Q 2531 541 2789 625 
Q 3047 709 3200 863 
Q 3416 1078 3536 1442 
Q 3656 1806 3656 2325 
Q 3656 3044 3420 3430 
Q 3184 3816 2847 3947 
Q 2603 4041 2063 4041 
L 1100 4041 
L 1100 541 
z
" transform="scale(0.015625)"/>
     </defs>
     <use xlink:href="#ArialMT-44"/>
    </g>
   </g>
   <g id="text_28">
    <!-- G -->
    <g transform="translate(51.532277 19.771915) scale(0.08 -0.08)">
     <use xlink:href="#ArialMT-47"/>
    </g>
   </g>
   <g id="text_29">
    <!-- K -->
    <g transform="translate(51.975402 22.044889) scale(0.08 -0.08)">
     <use xlink:href="#ArialMT-4b"/>
    </g>
   </g>
   <g id="text_30">
    <!-- Q -->
    <g transform="translate(51.532277 36.13076) scale(0.08 -0.08)">
     <defs>
      <path id="ArialMT-51" d="M 3966 491 
Q 4388 200 4744 66 
L 4566 -356 
Q 4072 -178 3581 206 
Q 3072 -78 2456 -78 
Q 1834 -78 1328 222 
Q 822 522 548 1065 
Q 275 1609 275 2291 
Q 275 2969 550 3525 
Q 825 4081 1333 4372 
Q 1841 4663 2469 4663 
Q 3103 4663 3612 4361 
Q 4122 4059 4389 3517 
Q 4656 2975 4656 2294 
Q 4656 1728 4484 1276 
Q 4313 825 3966 491 
z
M 2631 1266 
Q 3156 1119 3497 828 
Q 4031 1316 4031 2294 
Q 4031 2850 3842 3265 
Q 3653 3681 3289 3911 
Q 2925 4141 2472 4141 
Q 1794 4141 1347 3677 
Q 900 3213 900 2291 
Q 900 1397 1342 919 
Q 1784 441 2472 441 
Q 2797 441 3084 563 
Q 2800 747 2484 825 
L 2631 1266 
z
" transform="scale(0.015625)"/>
     </defs>
     <use xlink:href="#ArialMT-51"/>
    </g>
   </g>
   <g id="text_31">
    <!-- V -->
    <g style="fill: #0000ff" transform="translate(51.975402 21.847854) scale(0.08 -0.08)">
     <use xlink:href="#ArialMT-56"/>
    </g>
   </g>
   <g id="text_32">
    <!-- * -->
    <g transform="translate(260.384421 106.102261) scale(0.08 -0.08)">
     <defs>
      <path id="ArialMT-2a" d="M 200 3741 
L 344 4184 
Q 841 4009 1066 3881 
Q 1006 4447 1003 4659 
L 1456 4659 
Q 1447 4350 1384 3884 
Q 1706 4047 2122 4184 
L 2266 3741 
Q 1869 3609 1488 3566 
Q 1678 3400 2025 2975 
L 1650 2709 
Q 1469 2956 1222 3381 
Q 991 2941 816 2709 
L 447 2975 
Q 809 3422 966 3566 
Q 563 3644 200 3741 
z
" transform="scale(0.015625)"/>
     </defs>
     <use xlink:href="#ArialMT-2a"/>
    </g>
   </g>
   <g id="text_33">
    <!-- A -->
    <g transform="translate(259.273171 23.51668) scale(0.08 -0.08)">
     <use xlink:href="#ArialMT-41"/>
    </g>
   </g>
   <g id="text_34">
    <!-- D -->
    <g style="fill: #0000ff" transform="translate(259.052546 22.381433) scale(0.08 -0.08)">
     <use xlink:href="#ArialMT-44"/>
    </g>
   </g>
   <g id="text_35">
    <!-- G -->
    <g transform="translate(258.830046 26.453252) scale(0.08 -0.08)">
     <use xlink:href="#ArialMT-47"/>
    </g>
   </g>
   <g id="text_36">
    <!-- K -->
    <g transform="translate(259.273171 59.264576) scale(0.08 -0.08)">
     <use xlink:href="#ArialMT-4b"/>
    </g>
   </g>
   <g id="text_37">
    <!-- Q -->
    <g transform="translate(258.830046 20.523854) scale(0.08 -0.08)">
     <use xlink:href="#ArialMT-51"/>
    </g>
   </g>
   <g id="text_38">
    <!-- V -->
    <g transform="translate(259.273171 20.97624) scale(0.08 -0.08)">
     <use xlink:href="#ArialMT-56"/>
    </g>
   </g>
   <g id="text_39">
    <!-- F -->
    <g transform="translate(93.659956 85.757042) scale(0.08 -0.08)">
     <use xlink:href="#ArialMT-46"/>
    </g>
   </g>
   <g id="text_40">
    <!-- L -->
    <g transform="translate(93.878706 77.683979) scale(0.08 -0.08)">
     <defs>
      <path id="ArialMT-4c" d="M 469 0 
L 469 4581 
L 1075 4581 
L 1075 541 
L 3331 541 
L 3331 0 
L 469 0 
z
" transform="scale(0.015625)"/>
     </defs>
     <use xlink:href="#ArialMT-4c"/>
    </g>
   </g>
   <g id="text_41">
    <!-- M -->
    <g transform="translate(92.771206 65.597043) scale(0.08 -0.08)">
     <defs>
      <path id="ArialMT-4d" d="M 475 0 
L 475 4581 
L 1388 4581 
L 2472 1338 
Q 2622 884 2691 659 
Q 2769 909 2934 1394 
L 4031 4581 
L 4847 4581 
L 4847 0 
L 4263 0 
L 4263 3834 
L 2931 0 
L 2384 0 
L 1059 3900 
L 1059 0 
L 475 0 
z
" transform="scale(0.015625)"/>
     </defs>
     <use xlink:href="#ArialMT-4d"/>
    </g>
   </g>
   <g id="text_42">
    <!-- N -->
    <g transform="translate(93.214331 36.485931) scale(0.08 -0.08)">
     <use xlink:href="#ArialMT-4e"/>
    </g>
   </g>
   <g id="text_43">
    <!-- S -->
    <g transform="translate(93.434956 47.186552) scale(0.08 -0.08)">
     <use xlink:href="#ArialMT-53"/>
    </g>
   </g>
   <g id="text_44">
    <!-- T -->
    <g style="fill: #0000ff" transform="translate(93.659956 53.391658) scale(0.08 -0.08)">
     <defs>
      <path id="ArialMT-54" d="M 1659 0 
L 1659 4041 
L 150 4041 
L 150 4581 
L 3781 4581 
L 3781 4041 
L 2266 4041 
L 2266 0 
L 1659 0 
z
" transform="scale(0.015625)"/>
     </defs>
     <use xlink:href="#ArialMT-54"/>
    </g>
   </g>
   <g id="text_45">
    <!-- V -->
    <g transform="translate(93.434956 84.311115) scale(0.08 -0.08)">
     <use xlink:href="#ArialMT-56"/>
    </g>
   </g>
   <g id="text_46">
    <!-- I -->
    <g transform="translate(219.370492 48.434546) scale(0.08 -0.08)">
     <defs>
      <path id="ArialMT-49" d="M 597 0 
L 597 4581 
L 1203 4581 
L 1203 0 
L 597 0 
z
" transform="scale(0.015625)"/>
     </defs>
     <use xlink:href="#ArialMT-49"/>
    </g>
   </g>
   <g id="text_47">
    <!-- K -->
    <g transform="translate(217.813617 69.629711) scale(0.08 -0.08)">
     <use xlink:href="#ArialMT-4b"/>
    </g>
   </g>
   <g id="text_48">
    <!-- L -->
    <g transform="translate(218.257367 91.65791) scale(0.08 -0.08)">
     <use xlink:href="#ArialMT-4c"/>
    </g>
   </g>
   <g id="text_49">
    <!-- R -->
    <g transform="translate(217.592992 35.444648) scale(0.08 -0.08)">
     <use xlink:href="#ArialMT-52"/>
    </g>
   </g>
   <g id="text_50">
    <!-- T -->
    <g transform="translate(218.038617 62.085158) scale(0.08 -0.08)">
     <use xlink:href="#ArialMT-54"/>
    </g>
   </g>
   <g id="text_51">
    <!-- V -->
    <g style="fill: #0000ff" transform="translate(217.813617 49.016214) scale(0.08 -0.08)">
     <use xlink:href="#ArialMT-56"/>
    </g>
   </g>
   <g id="text_52">
    <!-- G -->
    <g transform="translate(134.451385 66.541253) scale(0.08 -0.08)">
     <use xlink:href="#ArialMT-47"/>
    </g>
   </g>
   <g id="text_53">
    <!-- I -->
    <g style="fill: #0000ff" transform="translate(136.451385 50.345611) scale(0.08 -0.08)">
     <use xlink:href="#ArialMT-49"/>
    </g>
   </g>
   <g id="text_54">
    <!-- K -->
    <g transform="translate(134.89451 41.097612) scale(0.08 -0.08)">
     <use xlink:href="#ArialMT-4b"/>
    </g>
   </g>
   <g id="text_55">
    <!-- S -->
    <g transform="translate(134.89451 61.81278) scale(0.08 -0.08)">
     <use xlink:href="#ArialMT-53"/>
    </g>
   </g>
   <g id="text_56">
    <!-- T -->
    <g transform="translate(135.11951 54.307777) scale(0.08 -0.08)">
     <use xlink:href="#ArialMT-54"/>
    </g>
   </g>
   <g id="text_57">
    <!-- C -->
    <g transform="translate(176.133439 96.618858) scale(0.08 -0.08)">
     <defs>
      <path id="ArialMT-43" d="M 3763 1606 
L 4369 1453 
Q 4178 706 3683 314 
Q 3188 -78 2472 -78 
Q 1731 -78 1267 223 
Q 803 525 561 1097 
Q 319 1669 319 2325 
Q 319 3041 592 3573 
Q 866 4106 1370 4382 
Q 1875 4659 2481 4659 
Q 3169 4659 3637 4309 
Q 4106 3959 4291 3325 
L 3694 3184 
Q 3534 3684 3231 3912 
Q 2928 4141 2469 4141 
Q 1941 4141 1586 3887 
Q 1231 3634 1087 3207 
Q 944 2781 944 2328 
Q 944 1744 1114 1308 
Q 1284 872 1643 656 
Q 2003 441 2422 441 
Q 2931 441 3284 734 
Q 3638 1028 3763 1606 
z
" transform="scale(0.015625)"/>
     </defs>
     <use xlink:href="#ArialMT-43"/>
    </g>
   </g>
   <g id="text_58">
    <!-- G -->
    <g style="fill: #0000ff" transform="translate(175.910939 85.172498) scale(0.08 -0.08)">
     <use xlink:href="#ArialMT-47"/>
    </g>
   </g>
   <g id="text_59">
    <!-- I -->
    <g transform="translate(177.910939 101.902414) scale(0.08 -0.08)">
     <use xlink:href="#ArialMT-49"/>
    </g>
   </g>
   <g id="text_60">
    <!-- N -->
    <g transform="translate(176.133439 92.037337) scale(0.08 -0.08)">
     <use xlink:href="#ArialMT-4e"/>
    </g>
   </g>
   <g id="text_61">
    <!-- R -->
    <g transform="translate(176.133439 82.012683) scale(0.08 -0.08)">
     <use xlink:href="#ArialMT-52"/>
    </g>
   </g>
   <g id="text_62">
    <!-- T -->
    <g transform="translate(176.579064 87.48218) scale(0.08 -0.08)">
     <use xlink:href="#ArialMT-54"/>
    </g>
   </g>
   <g id="text_63">
    <!-- A -->
    <g transform="translate(383.651833 83.846106) scale(0.08 -0.08)">
     <use xlink:href="#ArialMT-41"/>
    </g>
   </g>
   <g id="text_64">
    <!-- L -->
    <g style="fill: #0000ff" transform="translate(384.095583 91.544722) scale(0.08 -0.08)">
     <use xlink:href="#ArialMT-4c"/>
    </g>
   </g>
   <g id="text_65">
    <!-- P -->
    <g transform="translate(383.651833 82.558804) scale(0.08 -0.08)">
     <use xlink:href="#ArialMT-50"/>
    </g>
   </g>
   <g id="text_66">
    <!-- T -->
    <g transform="translate(383.876833 86.248353) scale(0.08 -0.08)">
     <use xlink:href="#ArialMT-54"/>
    </g>
   </g>
   <g id="text_67">
    <!-- A -->
    <g transform="translate(342.192279 42.384559) scale(0.08 -0.08)">
     <use xlink:href="#ArialMT-41"/>
    </g>
   </g>
   <g id="text_68">
    <!-- I -->
    <g transform="translate(343.749154 23.990021) scale(0.08 -0.08)">
     <use xlink:href="#ArialMT-49"/>
    </g>
   </g>
   <g id="text_69">
    <!-- K -->
    <g transform="translate(342.192279 22.585589) scale(0.08 -0.08)">
     <use xlink:href="#ArialMT-4b"/>
    </g>
   </g>
   <g id="text_70">
    <!-- P -->
    <g transform="translate(342.192279 104.033238) scale(0.08 -0.08)">
     <use xlink:href="#ArialMT-50"/>
    </g>
   </g>
   <g id="text_71">
    <!-- R -->
    <g transform="translate(341.971654 16.534787) scale(0.08 -0.08)">
     <use xlink:href="#ArialMT-52"/>
    </g>
   </g>
   <g id="text_72">
    <!-- S -->
    <g style="fill: #0000ff" transform="translate(342.192279 52.89001) scale(0.08 -0.08)">
     <use xlink:href="#ArialMT-53"/>
    </g>
   </g>
  </g>
  <g id="axes_2">
   <g id="patch_5">
    <path d="M 417.894735 108.51251 
L 492.521932 108.51251 
L 492.521932 9.988289 
L 417.894735 9.988289 
L 417.894735 108.51251 
z
" style="fill: none"/>
   </g>
   <g id="patch_6">
    <path d="M 417.894735 97.542145 
L 472.976714 97.542145 
L 472.976714 96.107173 
L 417.894735 96.107173 
z
" clip-path="url(#p63c5069e1c)" style="fill-opacity: 0.75"/>
   </g>
   <g id="patch_7">
    <path d="M 417.894735 96.107173 
L 455.208333 96.107173 
L 455.208333 94.6722 
L 417.894735 94.6722 
z
" clip-path="url(#p63c5069e1c)" style="fill-opacity: 0.75"/>
   </g>
   <g id="patch_8">
    <path d="M 417.894735 94.6722 
L 439.216791 94.6722 
L 439.216791 93.237228 
L 417.894735 93.237228 
z
" clip-path="url(#p63c5069e1c)" style="fill-opacity: 0.75"/>
   </g>
   <g id="patch_9">
    <path d="M 417.894735 93.237228 
L 430.332601 93.237228 
L 430.332601 91.802255 
L 417.894735 91.802255 
z
" clip-path="url(#p63c5069e1c)" style="fill-opacity: 0.75"/>
   </g>
   <g id="patch_10">
    <path d="M 417.894735 91.802255 
L 432.109439 91.802255 
L 432.109439 90.367282 
L 417.894735 90.367282 
z
" clip-path="url(#p63c5069e1c)" style="fill-opacity: 0.75"/>
   </g>
   <g id="patch_11">
    <path d="M 417.894735 90.367282 
L 444.547305 90.367282 
L 444.547305 88.93231 
L 417.894735 88.93231 
z
" clip-path="url(#p63c5069e1c)" style="fill-opacity: 0.75"/>
   </g>
   <g id="patch_12">
    <path d="M 417.894735 88.93231 
L 444.547305 88.93231 
L 444.547305 87.497337 
L 417.894735 87.497337 
z
" clip-path="url(#p63c5069e1c)" style="fill-opacity: 0.75"/>
   </g>
   <g id="patch_13">
    <path d="M 417.894735 87.497337 
L 446.324143 87.497337 
L 446.324143 86.062364 
L 417.894735 86.062364 
z
" clip-path="url(#p63c5069e1c)" style="fill-opacity: 0.75"/>
   </g>
   <g id="patch_14">
    <path d="M 417.894735 86.062364 
L 488.968256 86.062364 
L 488.968256 84.627392 
L 417.894735 84.627392 
z
" clip-path="url(#p63c5069e1c)" style="fill-opacity: 0.75"/>
   </g>
   <g id="patch_15">
    <path d="M 417.894735 84.627392 
L 456.985171 84.627392 
L 456.985171 83.192419 
L 417.894735 83.192419 
z
" clip-path="url(#p63c5069e1c)" style="fill-opacity: 0.75"/>
   </g>
   <g id="patch_16">
    <path d="M 417.894735 83.192419 
L 485.41458 83.192419 
L 485.41458 81.757447 
L 417.894735 81.757447 
z
" clip-path="url(#p63c5069e1c)" style="fill-opacity: 0.75"/>
   </g>
   <g id="patch_17">
    <path d="M 417.894735 81.757447 
L 483.637742 81.757447 
L 483.637742 80.322474 
L 417.894735 80.322474 
z
" clip-path="url(#p63c5069e1c)" style="fill-opacity: 0.75"/>
   </g>
   <g id="patch_18">
    <path d="M 417.894735 80.322474 
L 467.646199 80.322474 
L 467.646199 78.887501 
L 417.894735 78.887501 
z
" clip-path="url(#p63c5069e1c)" style="fill-opacity: 0.75"/>
   </g>
   <g id="patch_19">
    <path d="M 417.894735 78.887501 
L 456.985171 78.887501 
L 456.985171 77.452529 
L 417.894735 77.452529 
z
" clip-path="url(#p63c5069e1c)" style="fill-opacity: 0.75"/>
   </g>
   <g id="patch_20">
    <path d="M 417.894735 77.452529 
L 437.439953 77.452529 
L 437.439953 76.017556 
L 417.894735 76.017556 
z
" clip-path="url(#p63c5069e1c)" style="fill-opacity: 0.75"/>
   </g>
   <g id="patch_21">
    <path d="M 417.894735 76.017556 
L 440.993629 76.017556 
L 440.993629 74.582584 
L 417.894735 74.582584 
z
" clip-path="url(#p63c5069e1c)" style="fill-opacity: 0.75"/>
   </g>
   <g id="patch_22">
    <path d="M 417.894735 74.582584 
L 428.555763 74.582584 
L 428.555763 73.147611 
L 417.894735 73.147611 
z
" clip-path="url(#p63c5069e1c)" style="fill-opacity: 0.75"/>
   </g>
   <g id="patch_23">
    <path d="M 417.894735 73.147611 
L 425.002087 73.147611 
L 425.002087 71.712638 
L 417.894735 71.712638 
z
" clip-path="url(#p63c5069e1c)" style="fill-opacity: 0.75"/>
   </g>
   <g id="patch_24">
    <path d="M 417.894735 71.712638 
L 430.332601 71.712638 
L 430.332601 70.277666 
L 417.894735 70.277666 
z
" clip-path="url(#p63c5069e1c)" style="fill-opacity: 0.75"/>
   </g>
   <g id="patch_25">
    <path d="M 417.894735 70.277666 
L 428.555763 70.277666 
L 428.555763 68.842693 
L 417.894735 68.842693 
z
" clip-path="url(#p63c5069e1c)" style="fill-opacity: 0.75"/>
   </g>
   <g id="patch_26">
    <path d="M 417.894735 68.842693 
L 423.225249 68.842693 
L 423.225249 67.407721 
L 417.894735 67.407721 
z
" clip-path="url(#p63c5069e1c)" style="fill-opacity: 0.75"/>
   </g>
   <g id="patch_27">
    <path d="M 417.894735 67.407721 
L 421.448411 67.407721 
L 421.448411 65.972748 
L 417.894735 65.972748 
z
" clip-path="url(#p63c5069e1c)" style="fill-opacity: 0.75"/>
   </g>
   <g id="patch_28">
    <path d="M 417.894735 65.972748 
L 428.555763 65.972748 
L 428.555763 64.537775 
L 417.894735 64.537775 
z
" clip-path="url(#p63c5069e1c)" style="fill-opacity: 0.75"/>
   </g>
   <g id="patch_29">
    <path d="M 417.894735 64.537775 
L 423.225249 64.537775 
L 423.225249 63.102803 
L 417.894735 63.102803 
z
" clip-path="url(#p63c5069e1c)" style="fill-opacity: 0.75"/>
   </g>
   <g id="patch_30">
    <path d="M 417.894735 63.102803 
L 426.778925 63.102803 
L 426.778925 61.66783 
L 417.894735 61.66783 
z
" clip-path="url(#p63c5069e1c)" style="fill-opacity: 0.75"/>
   </g>
   <g id="patch_31">
    <path d="M 417.894735 61.66783 
L 423.225249 61.66783 
L 423.225249 60.232858 
L 417.894735 60.232858 
z
" clip-path="url(#p63c5069e1c)" style="fill-opacity: 0.75"/>
   </g>
   <g id="patch_32">
    <path d="M 417.894735 60.232858 
L 419.671573 60.232858 
L 419.671573 58.797885 
L 417.894735 58.797885 
z
" clip-path="url(#p63c5069e1c)" style="fill-opacity: 0.75"/>
   </g>
   <g id="patch_33">
    <path d="M 417.894735 58.797885 
L 419.671573 58.797885 
L 419.671573 57.362912 
L 417.894735 57.362912 
z
" clip-path="url(#p63c5069e1c)" style="fill-opacity: 0.75"/>
   </g>
   <g id="patch_34">
    <path d="M 417.894735 57.362912 
L 419.671573 57.362912 
L 419.671573 55.92794 
L 417.894735 55.92794 
z
" clip-path="url(#p63c5069e1c)" style="fill-opacity: 0.75"/>
   </g>
   <g id="patch_35">
    <path d="M 417.894735 55.92794 
L 423.225249 55.92794 
L 423.225249 54.492967 
L 417.894735 54.492967 
z
" clip-path="url(#p63c5069e1c)" style="fill-opacity: 0.75"/>
   </g>
   <g id="patch_36">
    <path d="M 417.894735 54.492967 
L 419.671573 54.492967 
L 419.671573 53.057994 
L 417.894735 53.057994 
z
" clip-path="url(#p63c5069e1c)" style="fill-opacity: 0.75"/>
   </g>
   <g id="patch_37">
    <path d="M 417.894735 53.057994 
L 425.002087 53.057994 
L 425.002087 51.623022 
L 417.894735 51.623022 
z
" clip-path="url(#p63c5069e1c)" style="fill-opacity: 0.75"/>
   </g>
   <g id="patch_38">
    <path d="M 417.894735 51.623022 
L 423.225249 51.623022 
L 423.225249 50.188049 
L 417.894735 50.188049 
z
" clip-path="url(#p63c5069e1c)" style="fill-opacity: 0.75"/>
   </g>
   <g id="patch_39">
    <path d="M 417.894735 50.188049 
L 421.448411 50.188049 
L 421.448411 48.753077 
L 417.894735 48.753077 
z
" clip-path="url(#p63c5069e1c)" style="fill-opacity: 0.75"/>
   </g>
   <g id="patch_40">
    <path d="M 417.894735 48.753077 
L 417.894735 48.753077 
L 417.894735 47.318104 
L 417.894735 47.318104 
z
" clip-path="url(#p63c5069e1c)" style="fill-opacity: 0.75"/>
   </g>
   <g id="patch_41">
    <path d="M 417.894735 47.318104 
L 419.671573 47.318104 
L 419.671573 45.883131 
L 417.894735 45.883131 
z
" clip-path="url(#p63c5069e1c)" style="fill-opacity: 0.75"/>
   </g>
   <g id="patch_42">
    <path d="M 417.894735 45.883131 
L 423.225249 45.883131 
L 423.225249 44.448159 
L 417.894735 44.448159 
z
" clip-path="url(#p63c5069e1c)" style="fill-opacity: 0.75"/>
   </g>
   <g id="patch_43">
    <path d="M 417.894735 44.448159 
L 417.894735 44.448159 
L 417.894735 43.013186 
L 417.894735 43.013186 
z
" clip-path="url(#p63c5069e1c)" style="fill-opacity: 0.75"/>
   </g>
   <g id="patch_44">
    <path d="M 417.894735 43.013186 
L 419.671573 43.013186 
L 419.671573 41.578214 
L 417.894735 41.578214 
z
" clip-path="url(#p63c5069e1c)" style="fill-opacity: 0.75"/>
   </g>
   <g id="patch_45">
    <path d="M 417.894735 41.578214 
L 421.448411 41.578214 
L 421.448411 40.143241 
L 417.894735 40.143241 
z
" clip-path="url(#p63c5069e1c)" style="fill-opacity: 0.75"/>
   </g>
   <g id="patch_46">
    <path d="M 417.894735 40.143241 
L 419.671573 40.143241 
L 419.671573 38.708268 
L 417.894735 38.708268 
z
" clip-path="url(#p63c5069e1c)" style="fill-opacity: 0.75"/>
   </g>
   <g id="patch_47">
    <path d="M 417.894735 38.708268 
L 419.671573 38.708268 
L 419.671573 37.273296 
L 417.894735 37.273296 
z
" clip-path="url(#p63c5069e1c)" style="fill-opacity: 0.75"/>
   </g>
   <g id="patch_48">
    <path d="M 417.894735 37.273296 
L 417.894735 37.273296 
L 417.894735 35.838323 
L 417.894735 35.838323 
z
" clip-path="url(#p63c5069e1c)" style="fill-opacity: 0.75"/>
   </g>
   <g id="patch_49">
    <path d="M 417.894735 35.838323 
L 425.002087 35.838323 
L 425.002087 34.403351 
L 417.894735 34.403351 
z
" clip-path="url(#p63c5069e1c)" style="fill-opacity: 0.75"/>
   </g>
   <g id="patch_50">
    <path d="M 417.894735 34.403351 
L 419.671573 34.403351 
L 419.671573 32.968378 
L 417.894735 32.968378 
z
" clip-path="url(#p63c5069e1c)" style="fill-opacity: 0.75"/>
   </g>
   <g id="patch_51">
    <path d="M 417.894735 32.968378 
L 421.448411 32.968378 
L 421.448411 31.533405 
L 417.894735 31.533405 
z
" clip-path="url(#p63c5069e1c)" style="fill-opacity: 0.75"/>
   </g>
   <g id="patch_52">
    <path d="M 417.894735 31.533405 
L 426.778925 31.533405 
L 426.778925 30.098433 
L 417.894735 30.098433 
z
" clip-path="url(#p63c5069e1c)" style="fill-opacity: 0.75"/>
   </g>
   <g id="patch_53">
    <path d="M 417.894735 30.098433 
L 425.002087 30.098433 
L 425.002087 28.66346 
L 417.894735 28.66346 
z
" clip-path="url(#p63c5069e1c)" style="fill-opacity: 0.75"/>
   </g>
   <g id="patch_54">
    <path d="M 417.894735 28.66346 
L 423.225249 28.66346 
L 423.225249 27.228488 
L 417.894735 27.228488 
z
" clip-path="url(#p63c5069e1c)" style="fill-opacity: 0.75"/>
   </g>
   <g id="patch_55">
    <path d="M 417.894735 27.228488 
L 419.671573 27.228488 
L 419.671573 25.793515 
L 417.894735 25.793515 
z
" clip-path="url(#p63c5069e1c)" style="fill-opacity: 0.75"/>
   </g>
   <g id="matplotlib.axis_3">
    <g id="xtick_10">
     <g id="line2d_25">
      <defs>
       <path id="mcb2fdfbd4a" d="M 0 0 
L 0 3.5 
" style="stroke: #000000; stroke-width: 0.25"/>
      </defs>
      <g>
       <use xlink:href="#mcb2fdfbd4a" x="417.894735" y="108.51251" style="stroke: #000000; stroke-width: 0.25"/>
      </g>
     </g>
     <g id="text_73">
      <!-- 0 -->
      <g transform="translate(415.67036 121.23876) scale(0.08 -0.08)">
       <use xlink:href="#ArialMT-30"/>
      </g>
     </g>
    </g>
    <g id="xtick_11">
     <g id="line2d_26">
      <g>
       <use xlink:href="#mcb2fdfbd4a" x="435.663115" y="108.51251" style="stroke: #000000; stroke-width: 0.25"/>
      </g>
     </g>
     <g id="text_74">
      <!-- 10 -->
      <g transform="translate(431.214365 121.23876) scale(0.08 -0.08)">
       <use xlink:href="#ArialMT-31"/>
       <use xlink:href="#ArialMT-30" x="55.615234"/>
      </g>
     </g>
    </g>
    <g id="xtick_12">
     <g id="line2d_27">
      <g>
       <use xlink:href="#mcb2fdfbd4a" x="453.431495" y="108.51251" style="stroke: #000000; stroke-width: 0.25"/>
      </g>
     </g>
     <g id="text_75">
      <!-- 20 -->
      <g transform="translate(448.982745 121.23876) scale(0.08 -0.08)">
       <use xlink:href="#ArialMT-32"/>
       <use xlink:href="#ArialMT-30" x="55.615234"/>
      </g>
     </g>
    </g>
    <g id="xtick_13">
     <g id="line2d_28">
      <g>
       <use xlink:href="#mcb2fdfbd4a" x="471.199876" y="108.51251" style="stroke: #000000; stroke-width: 0.25"/>
      </g>
     </g>
     <g id="text_76">
      <!-- 30 -->
      <g transform="translate(466.751126 121.23876) scale(0.08 -0.08)">
       <use xlink:href="#ArialMT-33"/>
       <use xlink:href="#ArialMT-30" x="55.615234"/>
      </g>
     </g>
    </g>
    <g id="xtick_14">
     <g id="line2d_29">
      <g>
       <use xlink:href="#mcb2fdfbd4a" x="488.968256" y="108.51251" style="stroke: #000000; stroke-width: 0.25"/>
      </g>
     </g>
     <g id="text_77">
      <!-- 40 -->
      <g transform="translate(484.519506 121.23876) scale(0.08 -0.08)">
       <use xlink:href="#ArialMT-34"/>
       <use xlink:href="#ArialMT-30" x="55.615234"/>
      </g>
     </g>
    </g>
    <g id="text_78">
     <!-- Count -->
     <g transform="translate(444.535208 132.55501) scale(0.08 -0.08)">
      <use xlink:href="#ArialMT-43"/>
      <use xlink:href="#ArialMT-6f" x="72.216797"/>
      <use xlink:href="#ArialMT-75" x="127.832031"/>
      <use xlink:href="#ArialMT-6e" x="183.447266"/>
      <use xlink:href="#ArialMT-74" x="239.0625"/>
     </g>
    </g>
   </g>
   <g id="matplotlib.axis_4"/>
   <g id="patch_56">
    <path d="M 417.894735 108.51251 
L 417.894735 9.988289 
" style="fill: none; stroke: #000000; stroke-width: 0.25; stroke-linejoin: miter; stroke-linecap: square"/>
   </g>
   <g id="patch_57">
    <path d="M 417.894735 108.51251 
L 492.521932 108.51251 
" style="fill: none; stroke: #000000; stroke-width: 0.25; stroke-linejoin: miter; stroke-linecap: square"/>
   </g>
  </g>
 </g>
 <defs>
  <clipPath id="pe58eae6d7d">
   <rect x="33.91375" y="9.988289" width="373.135985" height="98.524222"/>
  </clipPath>
  <clipPath id="p63c5069e1c">
   <rect x="417.894735" y="9.988289" width="74.627197" height="98.524222"/>
  </clipPath>
 </defs>
</svg>
